<?xml version="1.0" encoding="UTF-8" standalone="no"?>
<svg width="61px" height="61px" viewBox="0 0 61 61" version="1.1" xmlns="http://www.w3.org/2000/svg" xmlns:xlink="http://www.w3.org/1999/xlink">
    <title>attendees-icon</title>

    <defs></defs>
    <g id="Page-1" stroke="none" stroke-width="1" fill="none" fill-rule="evenodd"  >
        <g id="Oval-9-+-👀" >
            <path d="M30.5,61 C47.3446857,61 61,47.3446857 61,30.5 C61,13.6553143 47.3446857,0 30.5,0 C13.6553143,0 0,13.6553143 0,30.5 C0,47.3446857 13.6553143,61 30.5,61 Z" id="Oval-9" fill="#F29F29"  ></path>
            <path d="M43.3490056,34.5558294 C43.3490056,30.694649 37.8330337,31.7978434 37.8330337,28.3656831 C37.8330337,28.3656831 40.0394225,25.8834957 40.0394225,21.3174968 C40.0394225,18.5901551 37.8023894,16.3531221 35.0750477,16.3531221 C32.3170618,16.3531221 30.110673,18.5901551 30.110673,21.3174968 C30.110673,21.869094 30.1413173,22.3594026 30.2026059,22.8497112 L30.2026059,22.8803555 C30.2026059,22.8803555 32.3170618,24.7496571 32.3170618,27.9366631 C32.3170618,32.3187963 30.3558273,35.2912923 30.3558273,35.2912923 C30.3558273,35.2912923 30.8767802,35.7816009 32.1944846,36.2106209 L42.7974084,36.2106209 C43.1038513,36.2106209 43.3490056,35.9654666 43.3490056,35.6590237 L43.3490056,34.5558294 Z M33.4202562,41.1749957 C33.4202562,37.3138153 27.9042843,38.4170097 27.9042843,34.9848494 C27.9042843,34.9848494 30.110673,32.502662 30.110673,27.9366631 C30.110673,25.2093214 27.87364,22.9722883 25.1462983,22.9722883 C22.3883123,22.9722883 20.1819236,25.2093214 20.1819236,27.9366631 C20.1819236,32.502662 22.3883123,34.9848494 22.3883123,34.9848494 C22.3883123,38.4170097 16.8723404,37.3444596 16.8723404,41.1749957 L16.8723404,42.27819 C16.8723404,42.5846329 17.1174947,42.8297872 17.4239376,42.8297872 L32.868659,42.8297872 C33.1751019,42.8297872 33.4202562,42.5846329 33.4202562,42.27819 L33.4202562,41.1749957 Z" id="👥" fill="#FFFFFF"  ></path>
        </g>
    </g>
</svg>
