<?xml version="1.0" encoding="UTF-8" standalone="no"?>
<svg width="14px" height="14px" viewBox="0 0 14 14" version="1.1" xmlns="http://www.w3.org/2000/svg" xmlns:xlink="http://www.w3.org/1999/xlink">

    <title>briefcase-small-medium</title>
    
    <defs></defs>
    <g id="Page-1" stroke="none" stroke-width="1" fill="none" fill-rule="evenodd"  >
        <path d="M0,5.23436814 L0,12.1406091 C0,13.1562327 0.843748894,13.9999816 1.87499754,13.9999816 L2.99999607,13.9999816 L2.99999607,3.49999541 L1.87499754,3.49999541 C0.843748894,3.49999541 0,4.21874447 0,5.23436814 Z M12.1406091,3.49999541 L10.9999856,3.49999541 L10.9999856,13.9999816 L12.1406091,13.9999816 C13.1562327,13.9999816 13.9999816,13.1562327 13.9999816,12.1406091 L13.9999816,5.23436814 C13.9999816,4.21874447 13.1562327,3.49999541 12.1406091,3.49999541 Z M8.62498869,0 L5.37499295,0 C4.3437443,0 3.49999541,0.843748894 3.49999541,1.87499754 L3.49999541,13.9999816 L10.4999862,13.9999816 L10.4999862,1.87499754 C10.4999862,0.843748894 9.65623734,0 8.62498869,0 Z M9.49998754,3.49999541 L4.4999941,3.49999541 L4.4999941,1.87499754 C4.4999941,1.42187314 4.92186855,0.999998689 5.37499295,0.999998689 L8.62498869,0.999998689 C9.0781131,0.999998689 9.49998754,1.42187314 9.49998754,1.87499754 L9.49998754,3.49999541 Z" id="briefcase" opacity="0.691173041" fill="#666F81"  ></path>
    </g>
</svg>
