<?xml version="1.0" encoding="UTF-8" standalone="no"?>
<svg width="16px" height="16px" viewBox="0 0 16 16" version="1.1" xmlns="http://www.w3.org/2000/svg" xmlns:xlink="http://www.w3.org/1999/xlink">
    
    <title>calendar-small</title>

    <defs></defs>
    <g id="Page-1" stroke="none" stroke-width="1" fill="none" fill-rule="evenodd"  >
        <path d="M15.0000393,0 L13.6667025,0 L13.6667025,2.00000525 C13.6667025,2.55556226 13.2222569,3.00000787 12.6666999,3.00000787 C12.1111429,3.00000787 11.6666973,2.55556226 11.6666973,2.00000525 L11.6666973,0 L4.3333447,0 L4.3333447,2.00000525 C4.3333447,2.55556226 3.88889909,3.00000787 3.33334208,3.00000787 C2.77778506,3.00000787 2.33333945,2.55556226 2.33333945,2.00000525 L2.33333945,0 L1.00000262,0 C0.44444561,0 0,0.44444561 0,1.00000262 L0,15.0000393 C0,15.5555964 0.44444561,16.000042 1.00000262,16.000042 L15.0000393,16.000042 C15.5555964,16.000042 16.000042,15.5555964 16.000042,15.0000393 L16.000042,1.00000262 C16.000042,0.44444561 15.5555964,0 15.0000393,0 Z M5.00001311,13.6667025 L2.33333945,13.6667025 L2.33333945,11.0000288 L5.00001311,11.0000288 L5.00001311,13.6667025 Z M5.00001311,9.0000236 L2.33333945,9.0000236 L2.33333945,6.33334994 L5.00001311,6.33334994 L5.00001311,9.0000236 Z M9.33335781,13.6667025 L6.66668415,13.6667025 L6.66668415,11.0000288 L9.33335781,11.0000288 L9.33335781,13.6667025 Z M9.33335781,9.0000236 L6.66668415,9.0000236 L6.66668415,6.33334994 L9.33335781,6.33334994 L9.33335781,9.0000236 Z M13.6667025,13.6667025 L11.0000288,13.6667025 L11.0000288,11.0000288 L13.6667025,11.0000288 L13.6667025,13.6667025 Z M13.6667025,9.0000236 L11.0000288,9.0000236 L11.0000288,6.33334994 L13.6667025,6.33334994 L13.6667025,9.0000236 Z" id="calendar" fill-opacity="0.58763587" fill="#767B83"  ></path>
    </g>
</svg>
