<?xml version="1.0" encoding="UTF-8" standalone="no"?>
<svg width="80px" height="86px" viewBox="0 0 80 86" version="1.1" xmlns="http://www.w3.org/2000/svg" xmlns:xlink="http://www.w3.org/1999/xlink">
    <title>calendar</title>
    
    <defs></defs>
    <g id="Page-1" stroke="none" stroke-width="1" fill="none" fill-rule="evenodd"  >
        <path d="M79.8572381,18.4285934 C79.8572381,15.0692144 77.0737526,12.2857289 73.7143736,12.2857289 L67.5715091,12.2857289 L67.5715091,7.67858058 C67.5715091,3.45536126 64.1161479,0 59.8929285,0 L56.8214963,0 C52.598277,0 49.1429157,3.45536126 49.1429157,7.67858058 L49.1429157,12.2857289 L30.7143223,12.2857289 L30.7143223,7.67858058 C30.7143223,3.45536126 27.2589611,0 23.0357417,0 L19.9643095,0 C15.7410902,0 12.2857289,3.45536126 12.2857289,7.67858058 L12.2857289,12.2857289 L6.14286447,12.2857289 C2.78348546,12.2857289 0,15.0692144 0,18.4285934 L0,79.8572381 C0,83.2166171 2.78348546,86.0001025 6.14286447,86.0001025 L73.7143736,86.0001025 C77.0737526,86.0001025 79.8572381,83.2166171 79.8572381,79.8572381 L79.8572381,18.4285934 Z M6.14286447,79.8572381 L6.14286447,66.035793 L19.9643095,66.035793 L19.9643095,79.8572381 L6.14286447,79.8572381 Z M23.0357417,79.8572381 L23.0357417,66.035793 L38.3929029,66.035793 L38.3929029,79.8572381 L23.0357417,79.8572381 Z M6.14286447,62.9643608 L6.14286447,47.6071996 L19.9643095,47.6071996 L19.9643095,62.9643608 L6.14286447,62.9643608 Z M23.0357417,62.9643608 L23.0357417,47.6071996 L38.3929029,47.6071996 L38.3929029,62.9643608 L23.0357417,62.9643608 Z M6.14286447,44.5357674 L6.14286447,30.7143223 L19.9643095,30.7143223 L19.9643095,44.5357674 L6.14286447,44.5357674 Z M41.4643351,79.8572381 L41.4643351,66.035793 L56.8214963,66.035793 L56.8214963,79.8572381 L41.4643351,79.8572381 Z M23.0357417,44.5357674 L23.0357417,30.7143223 L38.3929029,30.7143223 L38.3929029,44.5357674 L23.0357417,44.5357674 Z M59.8929285,79.8572381 L59.8929285,66.035793 L73.7143736,66.035793 L73.7143736,79.8572381 L59.8929285,79.8572381 Z M41.4643351,62.9643608 L41.4643351,47.6071996 L56.8214963,47.6071996 L56.8214963,62.9643608 L41.4643351,62.9643608 Z M24.5714579,21.5000256 C24.5714579,22.3158748 23.8515909,23.0357417 23.0357417,23.0357417 L19.9643095,23.0357417 C19.1484603,23.0357417 18.4285934,22.3158748 18.4285934,21.5000256 L18.4285934,7.67858058 C18.4285934,6.8627314 19.1484603,6.14286447 19.9643095,6.14286447 L23.0357417,6.14286447 C23.8515909,6.14286447 24.5714579,6.8627314 24.5714579,7.67858058 L24.5714579,21.5000256 Z M59.8929285,62.9643608 L59.8929285,47.6071996 L73.7143736,47.6071996 L73.7143736,62.9643608 L59.8929285,62.9643608 Z M41.4643351,44.5357674 L41.4643351,30.7143223 L56.8214963,30.7143223 L56.8214963,44.5357674 L41.4643351,44.5357674 Z M59.8929285,44.5357674 L59.8929285,30.7143223 L73.7143736,30.7143223 L73.7143736,44.5357674 L59.8929285,44.5357674 Z M61.4286447,21.5000256 C61.4286447,22.3158748 60.7087777,23.0357417 59.8929285,23.0357417 L56.8214963,23.0357417 C56.0056471,23.0357417 55.2857802,22.3158748 55.2857802,21.5000256 L55.2857802,7.67858058 C55.2857802,6.8627314 56.0056471,6.14286447 56.8214963,6.14286447 L59.8929285,6.14286447 C60.7087777,6.14286447 61.4286447,6.8627314 61.4286447,7.67858058 L61.4286447,21.5000256 Z" id="ï³" fill="#5D687E"  ></path>
    </g>
</svg>
