<?xml version="1.0" encoding="UTF-8" standalone="no"?>
<svg width="17px" height="17px" viewBox="0 0 17 17" version="1.1" xmlns="http://www.w3.org/2000/svg" xmlns:xlink="http://www.w3.org/1999/xlink"  >
    
    <title>cog</title>
    
    <defs></defs>
    <g id="Page-1" stroke="none" stroke-width="1" fill="none" fill-rule="evenodd"  >
        <path d="M14.3512309,9.48874016 C14.4102588,9.17392452 14.4299348,8.8394329 14.4299348,8.50494129 C14.4299348,8.17044967 14.4102588,7.83595805 14.3512309,7.52114241 L15.984337,6.10447203 C16.1023929,6.02576812 16.1417449,5.8683603 16.0827169,5.73062846 C15.7482253,4.70747762 15.177622,3.74335472 14.4692868,2.93663965 C14.3709069,2.81858378 14.233175,2.77923183 14.0954432,2.83825976 L12.0491415,3.54659495 C11.5375661,3.13339942 10.9669628,2.7989078 10.3570075,2.56279607 L9.94381194,0.4377905 C9.92413597,0.300058657 9.8060801,0.182002792 9.66834826,0.162326815 C8.60584547,-0.0541089382 7.50399073,-0.0541089382 6.44148794,0.162326815 C6.3037561,0.182002792 6.18570024,0.300058657 6.16602426,0.4377905 L5.75282873,2.56279607 C5.14287343,2.7989078 4.5525941,3.13339942 4.06069466,3.54659495 L2.014393,2.83825976 C1.87666116,2.77923183 1.73892932,2.81858378 1.64054943,2.93663965 C0.932214237,3.74335472 0.361610889,4.70747762 0.0271192706,5.73062846 C-0.031908662,5.8683603 0.00744329307,6.02576812 0.125499158,6.10447203 L1.75860529,7.52114241 C1.69957736,7.83595805 1.67990138,8.17044967 1.67990138,8.50494129 C1.67990138,8.8394329 1.69957736,9.17392452 1.75860529,9.48874016 L0.125499158,10.9054105 C0.00744329307,10.9841145 -0.031908662,11.1415223 0.0271192706,11.2792541 C0.361610889,12.3024049 0.932214237,13.2665278 1.64054943,14.0732429 C1.73892932,14.1912988 1.87666116,14.2306507 2.014393,14.1716228 L4.06069466,13.4632876 C4.5525941,13.8764832 5.14287343,14.2109748 5.75282873,14.4470865 L6.16602426,16.5720921 C6.18570024,16.7098239 6.3037561,16.8278798 6.44148794,16.8475558 C6.97273934,16.9459356 7.50399073,17.0049636 8.0549181,17.0049636 C8.60584547,17.0049636 9.13709687,16.9459356 9.66834826,16.8475558 C9.8060801,16.8278798 9.92413597,16.7098239 9.94381194,16.5720921 L10.3570075,14.4470865 C10.9669628,14.2109748 11.5375661,13.8764832 12.0491415,13.4632876 L14.0954432,14.1716228 C14.233175,14.2306507 14.3709069,14.1912988 14.4692868,14.0732429 C15.177622,13.2665278 15.7482253,12.3024049 16.0827169,11.2792541 C16.1417449,11.1415223 16.1023929,10.9841145 15.984337,10.9054105 L14.3512309,9.48874016 Z M8.0549181,11.6924496 C6.28408012,11.6924496 4.86740974,10.2757793 4.86740974,8.50494129 C4.86740974,6.75377929 6.28408012,5.31743293 8.0549181,5.31743293 C9.8060801,5.31743293 11.2424265,6.75377929 11.2424265,8.50494129 C11.2424265,10.2757793 9.8060801,11.6924496 8.0549181,11.6924496 Z" id="cog" fill="#767B83"  ></path>
    </g>
</svg>
