<?xml version="1.0" encoding="UTF-8" standalone="no"?>
<svg width="11px" height="12px" viewBox="0 0 11 12" version="1.1" xmlns="http://www.w3.org/2000/svg" xmlns:xlink="http://www.w3.org/1999/xlink"  >
    <title>down</title>
    
    <defs>
        <filter x="-20%" y="-20%" width="140%" height="140%" filterUnits="objectBoundingBox" id="filter-1">
            <feOffset dx="0" dy="1" in="SourceAlpha" result="shadowOffsetOuter1"></feOffset>
            <feGaussianBlur stdDeviation="0.5" in="shadowOffsetOuter1" result="shadowBlurOuter1"></feGaussianBlur>
            <feColorMatrix values="0 0 0 0 1   0 0 0 0 1   0 0 0 0 1  0 0 0 0.7 0" in="shadowBlurOuter1" type="matrix" result="shadowMatrixOuter1"></feColorMatrix>
            <feMerge>
                <feMergeNode in="shadowMatrixOuter1"></feMergeNode>
                <feMergeNode in="SourceGraphic"></feMergeNode>
            </feMerge>
        </filter>
    </defs>
    <g id="Page-1" stroke="none" stroke-width="1" fill="none" fill-rule="evenodd"  >
        <path d="M0.266841178,12 C0.189239379,12 0.126188863,11.9768521 0.0776877384,11.9305556 C0.0291866141,11.884259 0.00493641567,11.8240744 0.00493641567,11.75 L0.00493641567,10.25 C0.00493641567,10.1759256 0.0291866141,10.115741 0.0776877384,10.0694444 C0.126188863,10.0231479 0.189239379,10 0.266841178,10 L10.7430317,10 C10.8206335,10 10.883684,10.0231479 10.9321851,10.0694444 C10.9806862,10.115741 11.0049364,10.1759256 11.0049364,10.25 L11.0049364,11.75 C11.0049364,11.8240744 10.9806862,11.884259 10.9321851,11.9305556 C10.883684,11.9768521 10.8206335,12 10.7430317,12 L0.266841178,12 Z M5.68898678,8.93055556 C5.62114503,8.97685208 5.55815007,9 5.5,9 C5.44184993,9 5.37885497,8.97685208 5.31101322,8.93055556 L0.0775332095,3.93055556 C-2.15369329e-07,3.85648111 -0.0193832808,3.76388944 0.0193834316,3.65277778 C0.0678418222,3.55092542 0.15021985,3.5 0.266519988,3.5 L3.14493399,3.5 L3.14493399,0.25 C3.14493399,0.175925556 3.16916283,0.115740972 3.21762122,0.0694444444 C3.26607961,0.0231479167 3.32907457,0 3.406608,0 L7.593392,0 C7.67092543,0 7.73392039,0.0231479167 7.78237878,0.0694444444 C7.83083717,0.115740972 7.85506601,0.175925556 7.85506601,0.25 L7.85506601,3.5 L10.73348,3.5 C10.8497801,3.5 10.9321582,3.55092542 10.9806166,3.65277778 C11.0193833,3.76388944 11.0000002,3.85648111 10.9224668,3.93055556 L5.68898678,8.93055556 Z" id="download" fill="#585D68" filter="url(#filter-1)"  ></path>
    </g>
</svg>
