<?xml version="1.0" encoding="UTF-8" standalone="no"?>
<svg width="13px" height="13px" viewBox="0 0 13 13" version="1.1" xmlns="http://www.w3.org/2000/svg" xmlns:xlink="http://www.w3.org/1999/xlink"  >
    <title>edit</title>
    
    <defs>
        <filter x="-20%" y="-20%" width="140%" height="140%" filterUnits="objectBoundingBox" id="filter-1">
            <feOffset dx="0" dy="1" in="SourceAlpha" result="shadowOffsetOuter1"></feOffset>
            <feGaussianBlur stdDeviation="0.5" in="shadowOffsetOuter1" result="shadowBlurOuter1"></feGaussianBlur>
            <feColorMatrix values="0 0 0 0 1   0 0 0 0 1   0 0 0 0 1  0 0 0 0.7 0" in="shadowBlurOuter1" type="matrix" result="shadowMatrixOuter1"></feColorMatrix>
            <feMerge>
                <feMergeNode in="shadowMatrixOuter1"></feMergeNode>
                <feMergeNode in="SourceGraphic"></feMergeNode>
            </feMerge>
        </filter>
    </defs>
    <g id="Page-1" stroke="none" stroke-width="1" fill="none" fill-rule="evenodd"  >
        <path d="M3.87191376,11.5706019 C3.85185193,11.5906637 3.82175964,11.6107252 3.78163598,11.630787 L0.381173018,12.9849537 C0.351080275,12.9949846 0.315972601,13 0.275848944,13 C0.215663458,13 0.150463492,12.9749231 0.0802470919,12.9247685 C-2.22907876e-07,12.8445212 -0.0200617507,12.7442136 0.0200619067,12.6238426 L1.37422857,9.22337963 C1.3942904,9.18325597 1.41435193,9.15316368 1.43441376,9.13310185 L8.13001561,2.4375 L10.5675156,4.875 L3.87191376,11.5706019 Z M12.7642749,1.51967593 C12.9247695,1.69020147 13.0050156,1.88580137 13.0050156,2.10648148 C13.0050156,2.3271616 12.9247695,2.51774611 12.7642749,2.67824074 L11.3800156,4.0625 L8.94251561,1.625 L10.3267749,0.240740741 C10.4872695,0.0802461111 10.677854,0 10.8985341,0 C11.1192142,0 11.3148141,0.0802461111 11.4853397,0.240740741 L12.7642749,1.51967593 Z" id="edit" fill="#585D68" filter="url(#filter-1)"  ></path>
    </g>
</svg>
