<?xml version="1.0" encoding="UTF-8" standalone="no"?>
<svg width="39px" height="39px" viewBox="0 0 39 39" version="1.1" xmlns="http://www.w3.org/2000/svg" xmlns:xlink="http://www.w3.org/1999/xlink"  >
    <title>group-circle</title>
    
    <defs></defs>
    <g id="Page-1" stroke="none" stroke-width="1" fill="none" fill-rule="evenodd"  >
        <ellipse id="Oval-44" stroke="#777D93" stroke-width="1.5"   cx="19.5" cy="19.375" rx="18.5" ry="18.375"></ellipse>
        <path d="M26.9974605,25.1931818 C26.9972143,19.6708055 24.3213041,22.2955815 24.3213041,17.4562817 C24.3213041,15.7093934 25.4299799,14.7613636 26.8534686,14.7613636 C28.9567958,14.7613636 30.42059,16.8329371 28.4288257,20.706624 C27.7744627,21.9792754 29.1255863,22.2816165 30.577135,22.6270586 C32.0280068,22.9722468 31.9163823,23.7613935 31.9163823,25.1931818 L26.9974605,25.1931818 Z M10.4895416,20.706624 C8.49777736,16.8329371 9.9615715,14.7613636 12.0648987,14.7613636 C13.488449,14.7613636 14.5970632,15.7094568 14.5970632,17.4562817 C14.5970632,22.295518 11.921153,19.6708055 11.9209069,25.1931818 L7.00198502,25.1931818 C7.00198502,23.76133 6.89036056,22.9721834 8.34123236,22.6270586 C9.79278105,22.28168 11.1439046,21.9792754 10.4895416,20.706624 Z M21.2448678,19.5190484 C23.6946923,14.6199109 21.8942232,12 19.3072711,12 C16.6692948,12 14.9132312,14.7204312 17.3697346,19.5190484 C18.1986375,21.1382874 16.4742234,21.5203285 14.7273659,21.9478111 C12.9428419,22.3843566 13.0800898,23.3823479 13.0800898,25.1931818 L25.5343922,25.1931818 C25.5343922,23.3822841 25.6717003,22.3843566 23.8871161,21.9478111 C22.1018701,21.5108827 20.4400329,21.1284587 21.2448678,19.5190484 Z" id="user-14-icon" fill="#777D93"  ></path>
    </g>
</svg>
