<?xml version="1.0" encoding="UTF-8" standalone="no"?>
<svg width="17px" height="17px" viewBox="0 0 17 17" version="1.1" xmlns="http://www.w3.org/2000/svg" xmlns:xlink="http://www.w3.org/1999/xlink"  >
    <title>icon-logout</title>
    
    <defs></defs>
    <g id="Page-1" stroke="none" stroke-width="1" fill="none" fill-rule="evenodd"  >
        <path d="M8.4999885,10.9285714 C9.20199648,10.9285714 9.71427257,10.4162946 9.71427257,9.71428571 L9.71427257,1.21428571 C9.71427257,0.512276786 9.20199648,0 8.4999885,0 C7.79798052,0 7.28570443,0.512276786 7.28570443,1.21428571 L7.28570443,9.71428571 C7.28570443,10.4162946 7.79798052,10.9285714 8.4999885,10.9285714 Z M12.1428407,0.702008929 L12.1428407,3.5859375 C13.3571248,4.66741071 14.590382,6.46986607 14.590382,8.5 C14.590382,11.7823661 11.8202965,14.4765625 8.53793488,14.4765625 C5.25557325,14.4765625 2.40959495,11.7823661 2.40959495,8.5 C2.40959495,6.46986607 3.64285221,4.66741071 4.85713629,3.5859375 L4.85713629,0.702008929 C1.82142611,2.01116071 0,5.00892857 0,8.5 C0,13.1863839 3.71874497,17 8.40512256,17 C13.0915001,17 16.999977,13.1863839 16.999977,8.5 C16.999977,5.00892857 15.1785509,2.01116071 12.1428407,0.702008929 Z" id="Text" fill="#777D93"  ></path>
    </g>
</svg>
