<?xml version="1.0" encoding="UTF-8" standalone="no"?>
<svg width="17px" height="17px" viewBox="0 0 17 17" version="1.1" xmlns="http://www.w3.org/2000/svg" xmlns:xlink="http://www.w3.org/1999/xlink" xmlns:sketch="http://www.bohemiancoding.com/sketch/ns">
    <!-- Generator: Sketch 3.0.4 (8053) - http://www.bohemiancoding.com/sketch -->
    <title>icon-contact-list-current</title>
    <desc>Created with Sketch.</desc>
    <defs></defs>
    <g id="Page-1" stroke="none" stroke-width="1" fill="none" fill-rule="evenodd" sketch:type="MSPage">
        <path d="M13.3571264,7.19083934 C14.9888208,7.19083934 16.297971,5.88168917 16.297971,4.24999475 C16.297971,2.63727353 14.9888208,1.30915017 13.3571264,1.30915017 C11.7444051,1.30915017 10.4162818,2.63727353 10.4162818,4.24999475 C10.4162818,5.88168917 11.7444051,7.19083934 13.3571264,7.19083934 Z M13.3571264,8.49998951 C11.3459681,8.49998951 9.71427373,10.036818 9.71427373,11.9341371 L9.71427373,16.999979 L16.999979,16.999979 L16.999979,11.9341371 C16.999979,10.036818 15.3682846,8.49998951 13.3571264,8.49998951 Z M4.55356581,6.37499213 C6.31807256,6.37499213 7.74106187,4.95200282 7.74106187,3.18749607 C7.74106187,1.42298932 6.31807256,0 4.55356581,0 C2.78905906,0 1.36606974,1.42298932 1.36606974,3.18749607 C1.36606974,4.95200282 2.78905906,6.37499213 4.55356581,6.37499213 Z M4.55356581,7.81695464 C2.03013142,7.81695464 0,9.7711933 0,12.1428422 L0,16.9810058 L9.10713162,16.9810058 L9.10713162,12.1428422 C9.10713162,9.7711933 7.07700019,7.81695464 4.55356581,7.81695464 Z" id="users" fill="#FFFFFF" sketch:type="MSShapeGroup"></path>
    </g>
</svg>