<?xml version="1.0" encoding="UTF-8" standalone="no"?>
<svg width="18px" height="18px" viewBox="0 0 18 18" version="1.1" xmlns="http://www.w3.org/2000/svg" xmlns:xlink="http://www.w3.org/1999/xlink"  >
    
    <title>icon-help</title>
    
    <defs></defs>
    <g id="Page-1" stroke="none" stroke-width="1" fill="none" fill-rule="evenodd"  >
        <path d="M12.0535556,0 L5.94642077,0 C2.63169298,0 0,2.63169298 0,5.94642077 L0,7.55356152 C0,10.8682893 2.63169298,13.4999823 5.94642077,13.4999823 L6.428563,13.4999823 L6.428563,17.9999764 L10.6071289,13.4999823 L12.0535556,13.4999823 C15.3682834,13.4999823 17.9999764,10.8682893 17.9999764,7.55356152 L17.9999764,5.94642077 C17.9999764,2.63169298 15.3682834,0 12.0535556,0 Z M8.9999882,11.5714134 C8.47766745,11.5714134 8.03570375,11.1294497 8.03570375,10.6071289 C8.03570375,10.0848082 8.47766745,9.6428445 8.9999882,9.6428445 C9.52230894,9.6428445 9.96427265,10.0848082 9.96427265,10.6071289 C9.96427265,11.1294497 9.52230894,11.5714134 8.9999882,11.5714134 Z M11.229896,6.77008041 C10.145076,7.29240115 9.68302302,7.59374004 9.6428445,8.3571319 L8.3571319,8.3571319 C8.3571319,7.11159782 8.43748894,6.34820596 9.88391561,5.66517114 C10.5267719,5.36383225 10.767843,5.1428504 10.767843,4.68079743 C10.767843,4.07811965 10.2455223,3.71651298 9.16070227,3.71651298 C8.17632856,3.71651298 7.513383,4.19865521 6.95088374,4.82142225 L5.7857067,3.45535261 C6.56918781,2.61160372 7.65400782,1.9285689 9.16070227,1.9285689 C11.1294497,1.9285689 12.5356978,2.77231779 12.5356978,4.6004404 C12.5356978,5.82588522 11.8325738,6.46874152 11.229896,6.77008041 Z" id="" fill="#A7A9AE"  ></path>
    </g>
</svg>
