<?xml version="1.0" encoding="UTF-8" standalone="no"?>
<svg width="18px" height="18px" viewBox="0 0 18 18" version="1.1" xmlns="http://www.w3.org/2000/svg" xmlns:xlink="http://www.w3.org/1999/xlink"  >
    
    <title>icon-dashboard</title>
    
    <defs></defs>
    <g id="Page-1" stroke="none" stroke-width="1" fill="none" fill-rule="evenodd"  >
        <path d="M8.9999882,0 C4.03794113,0 0,4.03794113 0,8.9999882 C0,13.9620353 4.03794113,17.9999764 8.9999882,17.9999764 C13.9620353,17.9999764 17.9999764,13.9620353 17.9999764,8.9999882 C17.9999764,4.03794113 13.9620353,0 8.9999882,0 Z M4.29910151,4.76115447 L5.60490336,6.06695633 C5.74552818,5.90624226 5.90624226,5.74552818 6.06695633,5.60490336 L4.76115447,4.29910151 C4.6004404,4.43972632 4.43972632,4.6004404 4.29910151,4.76115447 Z M3.03347817,6.89061596 L4.74106521,7.59374004 C4.80133299,7.37275819 4.88169003,7.1718656 4.98213632,6.970973 L3.27454928,6.26784892 C3.19419224,6.46874152 3.09374594,6.66963411 3.03347817,6.89061596 Z M6.89061596,3.03347817 C6.66963411,3.09374594 6.46874152,3.19419224 6.26784892,3.27454928 L6.970973,4.98213632 C7.1718656,4.88169003 7.37275819,4.80133299 7.59374004,4.74106521 L6.89061596,3.03347817 Z M9.34150561,4.52008336 L9.34150561,2.6718715 C9.22097005,2.6718715 9.12052375,2.65178224 8.9999882,2.65178224 C8.87945264,2.65178224 8.77900635,2.6718715 8.65847079,2.6718715 L8.65847079,4.52008336 C8.77900635,4.52008336 8.87945264,4.4999941 8.9999882,4.4999941 C9.12052375,4.4999941 9.22097005,4.52008336 9.34150561,4.52008336 Z M10.4062364,4.74106521 C10.6272182,4.80133299 10.8281108,4.88169003 11.0290034,4.98213632 L11.7321275,3.27454928 C11.5312349,3.19419224 11.3303423,3.09374594 11.1093604,3.03347817 L10.4062364,4.74106521 Z M14.7254271,6.26784892 L13.0178401,6.970973 C13.1182864,7.1718656 13.1986434,7.37275819 13.2589112,7.59374004 L14.9664982,6.89061596 C14.9062305,6.66963411 14.8258734,6.46874152 14.7254271,6.26784892 Z M8.9999882,16.0714075 C5.10267188,16.0714075 1.9285689,12.8973045 1.9285689,8.9999882 C1.9285689,5.10267188 5.10267188,1.9285689 8.9999882,1.9285689 C12.8973045,1.9285689 16.0714075,5.10267188 16.0714075,8.9999882 C16.0714075,12.8973045 12.8973045,16.0714075 8.9999882,16.0714075 Z M13.2388219,4.29910151 L11.9330201,5.60490336 C12.0937341,5.74552818 12.2544482,5.90624226 12.395073,6.06695633 L13.7008749,4.76115447 C13.5602501,4.6004404 13.399536,4.43972632 13.2388219,4.29910151 Z M9.6428445,11.7120382 L9.6428445,7.0714193 C9.6428445,6.70981263 9.36159487,6.428563 8.9999882,6.428563 C8.63838153,6.428563 8.3571319,6.70981263 8.3571319,7.0714193 L8.3571319,11.7120382 C7.79463264,11.9531093 7.39284745,12.5156086 7.39284745,13.1785541 C7.39284745,14.0624816 8.11606079,14.7856949 8.9999882,14.7856949 C9.88391561,14.7856949 10.6071289,14.0624816 10.6071289,13.1785541 C10.6071289,12.5156086 10.2053438,11.9531093 9.6428445,11.7120382 Z" id="" fill="#A7A9AE"  ></path>
    </g>
</svg>
