<?xml version="1.0" encoding="UTF-8" standalone="no"?>
<svg width="18px" height="18px" viewBox="0 0 18 18" version="1.1" xmlns="http://www.w3.org/2000/svg" xmlns:xlink="http://www.w3.org/1999/xlink"  >
    <title>icon-help-current</title>
    
    <defs></defs>
    <g id="Page-1" stroke="none" stroke-width="1" fill="none" fill-rule="evenodd"  >
        <path d="M12.0535556,2.36034393e-05 L5.94642077,2.36034393e-05 C2.63169298,2.36034393e-05 0,2.63171658 0,5.94644438 L0,7.55358513 C0,10.8683129 2.63169298,13.5000059 5.94642077,13.5000059 L6.428563,13.5000059 L6.428563,18 L10.6071289,13.5000059 L12.0535556,13.5000059 C15.3682834,13.5000059 17.9999764,10.8683129 17.9999764,7.55358513 L17.9999764,5.94644438 C17.9999764,2.63171658 15.3682834,2.36034393e-05 12.0535556,2.36034393e-05 Z M8.9999882,11.571437 C8.47766745,11.571437 8.03570375,11.1294733 8.03570375,10.6071526 C8.03570375,10.0848318 8.47766745,9.6428681 8.9999882,9.6428681 C9.52230894,9.6428681 9.96427265,10.0848318 9.96427265,10.6071526 C9.96427265,11.1294733 9.52230894,11.571437 8.9999882,11.571437 Z M11.229896,6.77010401 C10.145076,7.29242476 9.68302302,7.59376365 9.6428445,8.3571555 L8.3571319,8.3571555 C8.3571319,7.11162142 8.43748894,6.34822956 9.88391561,5.66519475 C10.5267719,5.36385586 10.767843,5.142874 10.767843,4.68082104 C10.767843,4.07814326 10.2455223,3.71653659 9.16070227,3.71653659 C8.17632856,3.71653659 7.513383,4.19867881 6.95088374,4.82144585 L5.7857067,3.45537622 C6.56918781,2.61162732 7.65400782,1.9285925 9.16070227,1.9285925 C11.1294497,1.9285925 12.5356978,2.7723414 12.5356978,4.600464 C12.5356978,5.82590882 11.8325738,6.46876512 11.229896,6.77010401 Z" id="" fill="#FFFFFF"  ></path>
    </g>
</svg>
