<?xml version="1.0" encoding="UTF-8" standalone="no"?>
<svg width="18px" height="18px" viewBox="0 0 18 18" version="1.1" xmlns="http://www.w3.org/2000/svg" xmlns:xlink="http://www.w3.org/1999/xlink"  >
    <title>icon-dashboard-current</title>
    
    <defs></defs>
    <g id="Page-1" stroke="none" stroke-width="1" fill="none" fill-rule="evenodd"  >
        <path d="M8.9999882,2.36034393e-05 C4.03794113,2.36034393e-05 0,4.03796474 0,9.0000118 C0,13.9620589 4.03794113,18 8.9999882,18 C13.9620353,18 17.9999764,13.9620589 17.9999764,9.0000118 C17.9999764,4.03796474 13.9620353,2.36034393e-05 8.9999882,2.36034393e-05 Z M4.29910151,4.76117807 L5.60490336,6.06697993 C5.74552818,5.90626586 5.90624226,5.74555178 6.06695633,5.60492697 L4.76115447,4.29912511 C4.6004404,4.43974992 4.43972632,4.600464 4.29910151,4.76117807 Z M3.03347817,6.89063957 L4.74106521,7.59376365 C4.80133299,7.37278179 4.88169003,7.1718892 4.98213632,6.97099661 L3.27454928,6.26787253 C3.19419224,6.46876512 3.09374594,6.66965771 3.03347817,6.89063957 Z M6.89061596,3.03350177 C6.66963411,3.09376955 6.46874152,3.19421584 6.26784892,3.27457288 L6.970973,4.98215993 C7.1718656,4.88171363 7.37275819,4.80135659 7.59374004,4.74108882 L6.89061596,3.03350177 Z M9.34150561,4.52010696 L9.34150561,2.6718951 C9.22097005,2.6718951 9.12052375,2.65180584 8.9999882,2.65180584 C8.87945264,2.65180584 8.77900635,2.6718951 8.65847079,2.6718951 L8.65847079,4.52010696 C8.77900635,4.52010696 8.87945264,4.5000177 8.9999882,4.5000177 C9.12052375,4.5000177 9.22097005,4.52010696 9.34150561,4.52010696 Z M10.4062364,4.74108882 C10.6272182,4.80135659 10.8281108,4.88171363 11.0290034,4.98215993 L11.7321275,3.27457288 C11.5312349,3.19421584 11.3303423,3.09376955 11.1093604,3.03350177 L10.4062364,4.74108882 Z M14.7254271,6.26787253 L13.0178401,6.97099661 C13.1182864,7.1718892 13.1986434,7.37278179 13.2589112,7.59376365 L14.9664982,6.89063957 C14.9062305,6.66965771 14.8258734,6.46876512 14.7254271,6.26787253 Z M8.9999882,16.0714311 C5.10267188,16.0714311 1.9285689,12.8973281 1.9285689,9.0000118 C1.9285689,5.10269548 5.10267188,1.9285925 8.9999882,1.9285925 C12.8973045,1.9285925 16.0714075,5.10269548 16.0714075,9.0000118 C16.0714075,12.8973281 12.8973045,16.0714311 8.9999882,16.0714311 Z M13.2388219,4.29912511 L11.9330201,5.60492697 C12.0937341,5.74555178 12.2544482,5.90626586 12.395073,6.06697993 L13.7008749,4.76117807 C13.5602501,4.600464 13.399536,4.43974992 13.2388219,4.29912511 Z M9.6428445,11.7120618 L9.6428445,7.0714429 C9.6428445,6.70983623 9.36159487,6.4285866 8.9999882,6.4285866 C8.63838153,6.4285866 8.3571319,6.70983623 8.3571319,7.0714429 L8.3571319,11.7120618 C7.79463264,11.9531329 7.39284745,12.5156322 7.39284745,13.1785778 C7.39284745,14.0625052 8.11606079,14.7857185 8.9999882,14.7857185 C9.88391561,14.7857185 10.6071289,14.0625052 10.6071289,13.1785778 C10.6071289,12.5156322 10.2053438,11.9531329 9.6428445,11.7120618 Z" id="" fill="#FFFFFF"  ></path>
    </g>
</svg>
