<?xml version="1.0" encoding="UTF-8" standalone="no"?>
<svg width="19px" height="18px" viewBox="0 0 19 18" version="1.1" xmlns="http://www.w3.org/2000/svg" xmlns:xlink="http://www.w3.org/1999/xlink"  >
    
    <title>icon-social-current</title>
    
    <defs></defs>
    <g id="Page-1" stroke="none" stroke-width="1" fill="none" fill-rule="evenodd"  >
        <path d="M9.50002491,0 C4.24422409,0 0,3.45255535 0,7.71877024 C0,10.2916937 1.53935589,12.5567459 3.91436212,13.964157 C3.65047254,15.9433288 2.50695102,17.1088412 2.48496022,17.130832 C2.37500623,17.240786 2.35301543,17.4167123 2.39699703,17.5706479 C2.46296942,17.7245835 2.61690501,17.8125467 2.7708406,17.8125467 C5.05788364,17.8125467 6.9051107,16.3171724 7.89469663,15.3275865 C8.40048499,15.3935589 8.95025495,15.4375405 9.50002491,15.4375405 C14.7558257,15.4375405 19.0000498,11.9849851 19.0000498,7.71877024 C19.0000498,3.45255535 14.7558257,0 9.50002491,0 Z M4.75001246,9.10419054 C3.87038052,9.10419054 3.16667497,8.40048499 3.16667497,7.52085306 C3.16667497,6.64122112 3.87038052,5.93751557 4.75001246,5.93751557 C5.62964439,5.93751557 6.33334994,6.64122112 6.33334994,7.52085306 C6.33334994,8.40048499 5.62964439,9.10419054 4.75001246,9.10419054 Z M9.50002491,9.10419054 C8.62039298,9.10419054 7.91668743,8.40048499 7.91668743,7.52085306 C7.91668743,6.64122112 8.62039298,5.93751557 9.50002491,5.93751557 C10.3796569,5.93751557 11.0833624,6.64122112 11.0833624,7.52085306 C11.0833624,8.40048499 10.3796569,9.10419054 9.50002491,9.10419054 Z M14.2500374,9.10419054 C13.3704054,9.10419054 12.6666999,8.40048499 12.6666999,7.52085306 C12.6666999,6.64122112 13.3704054,5.93751557 14.2500374,5.93751557 C15.1296693,5.93751557 15.8333749,6.64122112 15.8333749,7.52085306 C15.8333749,8.40048499 15.1296693,9.10419054 14.2500374,9.10419054 Z" id="" fill="#FFFFFF"  ></path>
    </g>
</svg>
