<?xml version="1.0" encoding="UTF-8" standalone="no"?>
<svg width="17px" height="18px" viewBox="0 0 17 18" version="1.1" xmlns="http://www.w3.org/2000/svg" xmlns:xlink="http://www.w3.org/1999/xlink" xmlns:sketch="http://www.bohemiancoding.com/sketch/ns">
    <!-- Generator: Sketch 3.0.4 (8053) - http://www.bohemiancoding.com/sketch -->
    <title>icon-settings</title>
    <desc>Created with Sketch.</desc>
    <defs></defs>
    <g id="Page-1" stroke="none" stroke-width="1" fill="none" fill-rule="evenodd" sketch:type="MSPage">
        <path d="M15.195421,10.0469013 C15.2579211,9.71356714 15.2787545,9.35939955 15.2787545,9.00523195 C15.2787545,8.65106435 15.2579211,8.29689676 15.195421,7.96356255 L16.9245922,6.46355862 C17.0495925,6.38022507 17.0912593,6.21355796 17.0287591,6.06772425 C16.6745915,4.98438807 16.0704233,3.96355206 15.3204213,3.10938315 C15.2162544,2.98438283 15.0704206,2.94271605 14.9245869,3.00521621 L12.7579146,3.75521818 C12.2162465,3.31771703 11.6120782,2.96354944 10.9662432,2.71354878 L10.5287421,0.463542882 C10.5079087,0.317709167 10.3829083,0.192708839 10.2370746,0.171875451 C9.11207168,-0.0572918169 7.94540195,-0.0572918169 6.820399,0.171875451 C6.67456528,0.192708839 6.54956496,0.317709167 6.52873157,0.463542882 L6.09123042,2.71354878 C5.44539539,2.96354944 4.82039376,3.31771703 4.29955906,3.75521818 L2.13288671,3.00521621 C1.98705299,2.94271605 1.84121928,2.98438283 1.73705234,3.10938315 C0.987050368,3.96355206 0.382882117,4.98438807 0.0287145218,6.06772425 C-0.0337856421,6.21355796 0.00788113384,6.38022507 0.132881462,6.46355862 L1.86205266,7.96356255 C1.7995525,8.29689676 1.77871911,8.65106435 1.77871911,9.00523195 C1.77871911,9.35939955 1.7995525,9.71356714 1.86205266,10.0469013 L0.132881462,11.5469053 C0.00788113384,11.6302388 -0.0337856421,11.7969059 0.0287145218,11.9427397 C0.382882117,13.0260758 0.987050368,14.0469118 1.73705234,14.9010807 C1.84121928,15.0260811 1.98705299,15.0677478 2.13288671,15.0052477 L4.29955906,14.2552457 C4.82039376,14.6927469 5.44539539,15.0469145 6.09123042,15.2969151 L6.52873157,17.546921 C6.54956496,17.6927547 6.67456528,17.8177551 6.820399,17.8385885 C7.38290048,17.9427554 7.94540195,18.0052556 8.52873681,18.0052556 C9.11207168,18.0052556 9.67457315,17.9427554 10.2370746,17.8385885 C10.3829083,17.8177551 10.5079087,17.6927547 10.5287421,17.546921 L10.9662432,15.2969151 C11.6120782,15.0469145 12.2162465,14.6927469 12.7579146,14.2552457 L14.9245869,15.0052477 C15.0704206,15.0677478 15.2162544,15.0260811 15.3204213,14.9010807 C16.0704233,14.0469118 16.6745915,13.0260758 17.0287591,11.9427397 C17.0912593,11.7969059 17.0495925,11.6302388 16.9245922,11.5469053 L15.195421,10.0469013 Z M8.52873681,12.3802408 C6.6537319,12.3802408 5.15372796,10.8802369 5.15372796,9.00523195 C5.15372796,7.15106042 6.6537319,5.6302231 8.52873681,5.6302231 C10.3829083,5.6302231 11.9037457,7.15106042 11.9037457,9.00523195 C11.9037457,10.8802369 10.3829083,12.3802408 8.52873681,12.3802408 Z" id="cog" fill="#A7A9AE" sketch:type="MSShapeGroup"></path>
    </g>
</svg>