<?xml version="1.0" encoding="UTF-8" standalone="no"?>
<svg width="40px" height="40px" viewBox="0 0 40 40" version="1.1" xmlns="http://www.w3.org/2000/svg" xmlns:xlink="http://www.w3.org/1999/xlink"  >
    <title>instagram-graph</title>
    
    <defs></defs>
    <g id="Page-1" stroke="none" stroke-width="1" fill="none" fill-rule="evenodd"  >
        <path d="M28.6420898,8 L12.3579102,8 C10.5048828,8 9,9.50488281 9,11.3579102 L9,27.6420898 C9,29.4951172 10.5048828,31 12.3579102,31 L28.6420898,31 C30.4951172,31 32,29.4951172 32,27.6420898 L32,11.3579102 C32,9.50488281 30.4951172,8 28.6420898,8 Z M20.5,15.1875 C22.8808594,15.1875 24.8125,17.1191406 24.8125,19.5 C24.8125,21.8808594 22.8808594,23.8125 20.5,23.8125 C18.1191406,23.8125 16.1875,21.8808594 16.1875,19.5 C16.1875,17.1191406 18.1191406,15.1875 20.5,15.1875 Z M29.6079102,28.125 C29.6079102,28.3945312 29.3945312,28.6079102 29.125,28.6079102 L11.875,28.6079102 C11.6054688,28.6079102 11.3920898,28.3945312 11.3920898,28.125 L11.3920898,18.0625 L13.9414062,18.0625 C13.840332,18.5229492 13.7954102,19.0058594 13.7954102,19.5 C13.7954102,23.2060547 16.7939453,26.2045898 20.5,26.2045898 C24.2060547,26.2045898 27.2045898,23.2060547 27.2045898,19.5 C27.2045898,19.0058594 27.159668,18.5229492 27.0585938,18.0625 L29.6079102,18.0625 L29.6079102,28.125 Z M29.6079102,13.75 C29.6079102,14.0195312 29.3945312,14.2329102 29.125,14.2329102 L26.25,14.2329102 C25.9804688,14.2329102 25.7670898,14.0195312 25.7670898,13.75 L25.7670898,10.875 C25.7670898,10.6054688 25.9804688,10.3920898 26.25,10.3920898 L29.125,10.3920898 C29.3945312,10.3920898 29.6079102,10.6054688 29.6079102,10.875 L29.6079102,13.75 Z" id="ï™" fill="#3F729B"  ></path>
    </g>
</svg>
