<?xml version="1.0" encoding="UTF-8" standalone="no"?>
<svg width="14px" height="14px" viewBox="0 0 14 14" version="1.1" xmlns="http://www.w3.org/2000/svg" xmlns:xlink="http://www.w3.org/1999/xlink"  >
    
    <title>link-small-medium</title>
    
    <defs></defs>
    <g id="Page-1" stroke="none" stroke-width="1" fill="none" fill-rule="evenodd"  >
        <path d="M12.8860292,6.48149848 C14.3767738,4.99075383 14.3767738,2.59259939 12.8860292,1.11805849 C11.4114883,-0.372686163 9.01333382,-0.372686163 7.52258917,1.11805849 L5.35128718,3.28936048 C3.87674628,4.76390138 3.87674628,7.16205582 5.35128718,8.65280047 C5.69156585,8.99307914 6.24249322,8.99307914 6.58277189,8.65280047 C6.93925431,8.3125218 6.93925431,7.76159443 6.58277189,7.42131576 C5.78878833,6.61112845 5.78878833,5.3310325 6.58277189,4.52084519 L8.77027763,2.3495432 C9.56426119,1.55555964 10.8605609,1.55555964 11.6545445,2.3495432 C12.448528,3.14352676 12.448528,4.43982646 11.6545445,5.23381002 L10.6175047,6.28705353 C10.8767646,6.98381461 10.9739871,7.71298319 10.9091721,8.45835552 L12.8860292,6.48149848 Z M8.65685141,10.7106762 C10.1313923,9.23613533 10.1313923,6.8379809 8.65685141,5.34723625 C8.31657274,5.00695758 7.74944162,5.00695758 7.40916295,5.34723625 C7.06888428,5.68751492 7.06888428,6.25464603 7.40916295,6.5949247 C8.21935026,7.38890827 8.21935026,8.68520796 7.40916295,9.47919153 L5.23786096,11.6504935 C4.4438774,12.4444771 3.1475777,12.4444771 2.35359414,11.6504935 C1.55961057,10.85651 1.55961057,9.56021026 2.35359414,8.76622669 L3.39063389,7.72918694 C3.13137395,7.03242585 3.03415148,6.28705353 3.09896646,5.5416812 L1.10590568,7.53474198 C-0.368635226,9.00928289 -0.368635226,11.4074373 1.10590568,12.898182 C2.59665033,14.3727229 4.99480477,14.3727229 6.46934567,12.898182 L8.65685141,10.7106762 Z" id="link" opacity="0.691173041" fill="#666F81"  ></path>
    </g>
</svg>
