<?xml version="1.0" encoding="UTF-8" standalone="no"?>
<svg width="62px" height="62px" viewBox="0 0 62 62" version="1.1" xmlns="http://www.w3.org/2000/svg" xmlns:xlink="http://www.w3.org/1999/xlink"  >
    <title>much-smile</title>
    
    <defs></defs>
    <g id="Page-1" stroke="none" stroke-width="1" fill="none" fill-rule="evenodd"  >
        <path d="M31.0691557,8.13007355e-05 C13.9084639,8.13007355e-05 0,13.9085452 0,31.0000407 C0,48.0915361 13.9084639,62 31.0691557,62 C48.1606511,62 61.9999187,48.0915361 61.9999187,31.0000407 C61.9999187,13.9085452 48.1606511,8.13007355e-05 31.0691557,8.13007355e-05 Z M38.7499492,16.6072024 C41.171821,16.6072024 43.1785148,18.6138962 43.1785148,21.035768 C43.1785148,23.4576398 41.171821,25.4643336 38.7499492,25.4643336 C36.3280774,25.4643336 34.3213836,23.4576398 34.3213836,21.035768 C34.3213836,18.6138962 36.3280774,16.6072024 38.7499492,16.6072024 Z M23.2499695,16.6072024 C25.6718413,16.6072024 27.6785351,18.6138962 27.6785351,21.035768 C27.6785351,23.4576398 25.6718413,25.4643336 23.2499695,25.4643336 C20.8280977,25.4643336 18.8214039,23.4576398 18.8214039,21.035768 C18.8214039,18.6138962 20.8280977,16.6072024 23.2499695,16.6072024 Z M30.9999593,50.9285859 C22.0736318,50.9285859 14.2544456,44.2857375 11.0714141,37.6428891 L50.9285046,37.6428891 C47.8146694,44.2857375 40.0646796,50.9285859 30.9999593,50.9285859 Z" id="Text" fill="#A7A9AE"  ></path>
    </g>
</svg>
