<?xml version="1.0" encoding="UTF-8" standalone="no"?>
<svg width="30px" height="11px" viewBox="0 0 30 11" version="1.1" xmlns="http://www.w3.org/2000/svg" xmlns:xlink="http://www.w3.org/1999/xlink"  >
    <title>redactor-link</title>
    
    <defs></defs>
    <g id="Page-1" stroke="none" stroke-width="1" fill="none" fill-rule="evenodd"  >
        <path d="M16.7268899,4.86809372 C18.430598,3.05843217 18.430598,0.147237489 16.7268899,-1.64275383 C15.0417004,-3.45241539 12.3009526,-3.45241539 10.5972444,-1.64275383 L8.11575655,0.993057564 C6.43056701,2.78304889 6.43056701,5.69424356 8.11575655,7.50390512 C8.50464644,7.91698004 9.1342777,7.91698004 9.52316759,7.50390512 C9.93057606,7.0908302 9.93057606,6.42204223 9.52316759,6.00896731 C8.61575784,5.0254556 8.61575784,3.47150709 9.52316759,2.48799537 L12.0231741,-0.147816025 C12.9305838,-1.11165751 14.4120691,-1.11165751 15.3194789,-0.147816025 C16.2268886,0.816025456 16.2268886,2.3896442 15.3194789,3.35348568 L14.1342906,4.63205091 C14.4305877,5.47787099 14.5416991,6.36303153 14.4676248,7.26786231 L16.7268899,4.86809372 Z M11.8935441,10.0020249 C13.5787336,8.21203356 13.5787336,5.30083888 11.8935441,3.49117732 C11.5046542,3.0781024 10.8565044,3.0781024 10.4676145,3.49117732 C10.0787246,3.90425224 10.0787246,4.59271044 10.4676145,5.00578536 C11.3935428,5.96962684 11.3935428,7.54324559 10.4676145,8.50708707 L7.98612658,11.1428985 C7.07871683,12.1067399 5.59723152,12.1067399 4.68982177,11.1428985 C3.78241201,10.179057 3.78241201,8.60543824 4.68982177,7.64159676 L5.87501002,6.38270176 C5.57871295,5.53688169 5.46760156,4.63205091 5.54167582,3.72722013 L3.26389216,6.14665895 C1.57870261,7.93665027 1.57870261,10.847845 3.26389216,12.6575065 C4.96760026,14.4474978 7.70834809,14.4474978 9.39353763,12.6575065 L11.8935441,10.0020249 Z" id="Text" fill="#585D68"   transform="translate(10.002335, 5.500000) rotate(-315.000000) translate(-10.002335, -5.500000) "></path>
        <path d="M29.9704624,5.20138942 C29.9982403,5.1666671 30.0051847,5.11805587 29.9843513,5.06944463 C29.963518,5.02777785 29.9218512,5 29.8732399,5 L24.1232249,5 C24.0746136,5 24.0329468,5.02777785 24.0121135,5.06944463 C23.9912801,5.11805587 23.9982245,5.1666671 24.0260024,5.20138942 L26.9010099,8.7013986 C26.9218433,8.73612091 26.9635101,8.75000983 26.9982324,8.75000983 C27.0329547,8.75000983 27.067677,8.73612091 27.0954549,8.7013986 L29.9704624,5.20138942 Z" id="Text" fill="#585D68"  ></path>
    </g>
</svg>
