<?xml version="1.0" encoding="UTF-8" standalone="no"?>
<svg width="50px" height="17px" viewBox="0 0 50 17" version="1.1" xmlns="http://www.w3.org/2000/svg" xmlns:xlink="http://www.w3.org/1999/xlink"  >
    <title>redactor-style</title>
    
    <defs></defs>
    <g id="Page-1" stroke="none" stroke-width="1" fill="none" fill-rule="evenodd"  >
        <path d="M49.9704624,7.20138942 C49.9982403,7.1666671 50.0051847,7.11805587 49.9843513,7.06944463 C49.963518,7.02777785 49.9218512,7 49.8732399,7 L44.1232249,7 C44.0746136,7 44.0329468,7.02777785 44.0121135,7.06944463 C43.9912801,7.11805587 43.9982245,7.1666671 44.0260024,7.20138942 L46.9010099,10.7013986 C46.9218433,10.7361209 46.9635101,10.7500098 46.9982324,10.7500098 C47.0329547,10.7500098 47.067677,10.7361209 47.0954549,10.7013986 L49.9704624,7.20138942 Z" id="Text" fill="#585D68"  ></path>
        <path d="M1.224,9.396 C1.39200084,9.58800096 1.58099895,9.78299901 1.791,9.981 C2.00100105,10.179001 2.23799868,10.3559992 2.502,10.512 C2.76600132,10.6680008 3.05999838,10.7939995 3.384,10.89 C3.70800162,10.9860005 4.06199808,11.034 4.446,11.034 C5.23800396,11.034 5.85599778,10.8540018 6.3,10.494 C6.74400222,10.1339982 6.966,9.64800306 6.966,9.036 C6.966,8.3759967 6.71400252,7.88100165 6.21,7.551 C5.70599748,7.22099835 4.98000474,6.95400102 4.032,6.75 C3.51599742,6.64199946 3.0480021,6.49200096 2.628,6.3 C2.2079979,6.10799904 1.84500153,5.86800144 1.539,5.58 C1.23299847,5.29199856 0.99600084,4.95900189 0.828,4.581 C0.65999916,4.20299811 0.576,3.7740024 0.576,3.294 C0.576,2.84999778 0.65999916,2.43000198 0.828,2.034 C0.99600084,1.63799802 1.24799832,1.2900015 1.584,0.99 C1.92000168,0.6899985 2.33999748,0.4500009 2.844,0.27 C3.34800252,0.0899991 3.9299967,0 4.59,0 C5.17800294,0 5.68499787,0.06299937 6.111,0.189 C6.53700213,0.31500063 6.8999985,0.4679991 7.2,0.648 C7.5000015,0.8280009 7.7399991,1.01399904 7.92,1.206 C8.1000009,1.39800096 8.23799952,1.5539994 8.334,1.674 L7.182,2.736 C7.10999964,2.65199958 7.00200072,2.54100069 6.858,2.403 C6.71399928,2.26499931 6.53100111,2.13000066 6.309,1.998 C6.08699889,1.86599934 5.82900147,1.75500045 5.535,1.665 C5.24099853,1.57499955 4.90200192,1.53 4.518,1.53 C4.13399808,1.53 3.80400138,1.58099949 3.528,1.683 C3.25199862,1.78500051 3.0240009,1.91699919 2.844,2.079 C2.6639991,2.24100081 2.53200042,2.42399898 2.448,2.628 C2.36399958,2.83200102 2.322,3.03599898 2.322,3.24 C2.322,3.5400015 2.38499937,3.79499895 2.511,4.005 C2.63700063,4.21500105 2.8199988,4.40099919 3.06,4.563 C3.3000012,4.72500081 3.59699823,4.86299943 3.951,4.977 C4.30500177,5.09100057 4.70999772,5.20199946 5.166,5.31 C5.61000222,5.41800054 6.04499787,5.55899913 6.471,5.733 C6.89700213,5.90700087 7.27799832,6.14099853 7.614,6.435 C7.95000168,6.72900147 8.21699901,7.08899787 8.415,7.515 C8.61300099,7.94100213 8.712,8.45999694 8.712,9.072 C8.712,9.58800258 8.60400108,10.0619978 8.388,10.494 C8.17199892,10.9260022 7.87500189,11.3009984 7.497,11.619 C7.11899811,11.9370016 6.67200258,12.1829991 6.156,12.357 C5.63999742,12.5310009 5.082003,12.618 4.482,12.618 C3.91799718,12.618 3.40500231,12.5520007 2.943,12.42 C2.48099769,12.2879993 2.06100189,12.120001 1.683,11.916 C1.30499811,11.711999 0.97500141,11.4870012 0.693,11.241 C0.41099859,10.9949988 0.1800009,10.7520012 0,10.512 L1.224,9.396 Z M11.646,5.292 L10.134,5.292 L10.134,3.942 L11.646,3.942 L11.646,1.206 L13.266,1.206 L13.266,3.942 L15.714,3.942 L15.714,5.292 L13.266,5.292 L13.266,9.414 C13.266,10.0860034 13.370999,10.5479987 13.581,10.8 C13.791001,11.0520013 14.0879981,11.178 14.472,11.178 C14.7840016,11.178 15.041999,11.1300005 15.246,11.034 C15.450001,10.9379995 15.653999,10.794001 15.858,10.602 L16.596,11.592 C16.2479983,11.9280017 15.8910018,12.1709993 15.525,12.321 C15.1589982,12.4710008 14.7240025,12.546 14.22,12.546 C13.3319956,12.546 12.6810021,12.3060024 12.267,11.826 C11.8529979,11.3459976 11.646,10.5960051 11.646,9.576 L11.646,5.292 Z M17.874,14.364 C17.9940006,14.4720005 18.1319992,14.5679996 18.288,14.652 C18.4440008,14.7360004 18.6359989,14.778 18.864,14.778 C19.056001,14.778 19.2209993,14.7360004 19.359,14.652 C19.4970007,14.5679996 19.6229994,14.4390009 19.737,14.265 C19.8510006,14.0909991 19.9589995,13.8810012 20.061,13.635 C20.1630005,13.3889988 20.2799993,13.1040016 20.412,12.78 L20.628,12.24 L16.884,3.942 L18.738,3.942 L21.438,10.26 L23.814,3.942 L25.578,3.942 L22.23,12.096 C22.0739992,12.4800019 21.9150008,12.9029977 21.753,13.365 C21.5909992,13.8270023 21.3900012,14.2649979 21.15,14.679 C20.9099988,15.0930021 20.6160017,15.4379986 20.268,15.714 C19.9199983,15.9900014 19.4820026,16.128 18.954,16.128 C18.5339979,16.128 18.1800014,16.0710006 17.892,15.957 C17.6039986,15.8429994 17.3520011,15.690001 17.136,15.498 L17.874,14.364 Z M26.874,0.306 L28.494,0.306 L28.494,12.312 L26.874,12.312 L26.874,0.306 Z M38.358,11.088 C38.2619995,11.1960005 38.118001,11.3339992 37.926,11.502 C37.733999,11.6700008 37.4850015,11.8319992 37.179,11.988 C36.8729985,12.1440008 36.5130021,12.2789994 36.099,12.393 C35.6849979,12.5070006 35.2140026,12.564 34.686,12.564 C34.0379968,12.564 33.4440027,12.4560011 32.904,12.24 C32.3639973,12.0239989 31.9020019,11.718002 31.518,11.322 C31.1339981,10.925998 30.837001,10.4520028 30.627,9.9 C30.4169989,9.34799724 30.312,8.73600336 30.312,8.064 C30.312,7.45199694 30.413999,6.87900267 30.618,6.345 C30.822001,5.81099733 31.1099981,5.34900195 31.482,4.959 C31.8540019,4.56899805 32.2949975,4.26000114 32.805,4.032 C33.3150026,3.80399886 33.8759969,3.69 34.488,3.69 C35.2080036,3.69 35.8259974,3.82799862 36.342,4.104 C36.8580026,4.38000138 37.2809984,4.74599772 37.611,5.202 C37.9410017,5.65800228 38.1839992,6.17999706 38.34,6.768 C38.4960008,7.35600294 38.574,7.96799682 38.574,8.604 L31.968,8.604 C31.9800001,8.97600186 32.0609993,9.31799844 32.211,9.63 C32.3610008,9.94200156 32.5619987,10.2119989 32.814,10.44 C33.0660013,10.6680011 33.3539984,10.8479993 33.678,10.98 C34.0020016,11.1120007 34.3439982,11.178 34.704,11.178 C35.4120035,11.178 35.9939977,11.0580012 36.45,10.818 C36.9060023,10.5779988 37.235999,10.3440011 37.44,10.116 L38.358,11.088 Z M36.9,7.398 C36.8519998,6.74999676 36.624002,6.19800228 36.216,5.742 C35.807998,5.28599772 35.2320037,5.058 34.488,5.058 C34.1039981,5.058 33.7590015,5.12399934 33.453,5.256 C33.1469985,5.38800066 32.8860011,5.56199892 32.67,5.778 C32.4539989,5.99400108 32.2860006,6.24299859 32.166,6.525 C32.0459994,6.80700141 31.9800001,7.0979985 31.968,7.398 L36.9,7.398 Z" id="Style" fill="#585D68"  ></path>
    </g>
</svg>
