<?xml version="1.0" encoding="UTF-8" standalone="no"?>
<svg width="9px" height="13px" viewBox="0 0 9 13" version="1.1" xmlns="http://www.w3.org/2000/svg" xmlns:xlink="http://www.w3.org/1999/xlink"  >
    <title>redactor-bold</title>
    
    <defs></defs>
    <g id="Page-1" stroke="none" stroke-width="1" fill="none" fill-rule="evenodd"  >
        <path d="M0,0 L4.068,0 C4.69200312,0 5.23199772,0.08099919 5.688,0.243 C6.14400228,0.40500081 6.5219985,0.62399862 6.822,0.9 C7.1220015,1.17600138 7.34699925,1.49999814 7.497,1.872 C7.64700075,2.24400186 7.722,2.6399979 7.722,3.06 C7.722,3.44400192 7.65300069,3.79199844 7.515,4.104 C7.37699931,4.41600156 7.20900099,4.67999892 7.011,4.896 C6.81299901,5.11200108 6.59700117,5.28599934 6.363,5.418 C6.12899883,5.55000066 5.92800084,5.62799988 5.76,5.652 C5.98800114,5.68800018 6.25499847,5.76299943 6.561,5.877 C6.86700153,5.99100057 7.15199868,6.16199886 7.416,6.39 C7.68000132,6.61800114 7.9019991,6.91499817 8.082,7.281 C8.2620009,7.64700183 8.352,8.0999973 8.352,8.64 C8.352,9.28800324 8.23500117,9.82499787 8.001,10.251 C7.76699883,10.6770021 7.44900201,11.0219987 7.047,11.286 C6.64499799,11.5500013 6.16800276,11.7359995 5.616,11.844 C5.06399724,11.9520005 4.47600312,12.006 3.852,12.006 L0,12.006 L0,0 Z M3.762,10.512 C4.07400156,10.512 4.39799832,10.4940002 4.734,10.458 C5.07000168,10.4219998 5.37899859,10.3380007 5.661,10.206 C5.94300141,10.0739993 6.1739991,9.87900129 6.354,9.621 C6.5340009,9.36299871 6.624,9.00600228 6.624,8.55 C6.624,8.11799784 6.53700087,7.77000132 6.363,7.506 C6.18899913,7.24199868 5.96700135,7.03200078 5.697,6.876 C5.42699865,6.71999922 5.13000162,6.61500027 4.806,6.561 C4.48199838,6.50699973 4.1700015,6.48 3.87,6.48 L1.674,6.48 L1.674,10.512 L3.762,10.512 Z M3.816,5.004 C4.08000132,5.004 4.34399868,4.97100033 4.608,4.905 C4.87200132,4.83899967 5.11199892,4.73400072 5.328,4.59 C5.54400108,4.44599928 5.71799934,4.26000114 5.85,4.032 C5.98200066,3.80399886 6.048,3.52800162 6.048,3.204 C6.048,2.8439982 5.98200066,2.55300111 5.85,2.331 C5.71799934,2.10899889 5.54400108,1.93500063 5.328,1.809 C5.11199892,1.68299937 4.87200132,1.59900021 4.608,1.557 C4.34399868,1.51499979 4.08000132,1.494 3.816,1.494 L1.674,1.494 L1.674,5.004 L3.816,5.004 Z" id="B" fill="#585D68"  ></path>
    </g>
</svg>
