<?xml version="1.0" encoding="UTF-8" standalone="no"?>
<svg width="21px" height="10px" viewBox="0 0 21 10" version="1.1" xmlns="http://www.w3.org/2000/svg" xmlns:xlink="http://www.w3.org/1999/xlink"  >
    <title>redactor-number-list</title>
    
    <defs></defs>
    <g id="Page-1" stroke="none" stroke-width="1" fill="none" fill-rule="evenodd"  >
        <g id="Group"  fill="#585D68">
            <rect id="Rectangle-2"   x="5" y="0" width="16" height="2"></rect>
            <rect id="Rectangle-2"   x="5" y="4" width="16" height="2"></rect>
            <rect id="Rectangle-2"   x="5" y="8" width="16" height="2"></rect>
            <path d="M0.108,9.378 C0.108,9.177999 0.14899959,8.9980008 0.231,8.838 C0.31300041,8.6779992 0.41599938,8.53200066 0.54,8.4 C0.66400062,8.26799934 0.79899927,8.14700055 0.945,8.037 C1.09100073,7.92699945 1.22599938,7.82300049 1.35,7.725 C1.47400062,7.62699951 1.57699959,7.53100047 1.659,7.437 C1.74100041,7.34299953 1.782,7.2460005 1.782,7.146 C1.782,7.04999952 1.74400038,6.96000042 1.668,6.876 C1.59199962,6.79199958 1.46600088,6.75 1.29,6.75 C1.20199956,6.75 1.12300035,6.76399986 1.053,6.792 C0.98299965,6.82000014 0.92100027,6.85499979 0.867,6.897 C0.81299973,6.93900021 0.76700019,6.98499975 0.729,7.035 C0.69099981,7.08500025 0.65800014,7.1299998 0.63,7.17 L0,6.732 C0.05200026,6.64399956 0.11899959,6.55600044 0.201,6.468 C0.28300041,6.37999956 0.38099943,6.30100035 0.495,6.231 C0.60900057,6.16099965 0.73999926,6.10500021 0.888,6.063 C1.03600074,6.02099979 1.20199908,6 1.386,6 C1.60200108,6 1.7899992,6.03099969 1.95,6.093 C2.1100008,6.15500031 2.24299947,6.2359995 2.349,6.336 C2.45500053,6.4360005 2.53399974,6.54999936 2.586,6.678 C2.63800026,6.80600064 2.664,6.93799932 2.664,7.074 C2.664,7.2540009 2.62600038,7.41599928 2.55,7.56 C2.47399962,7.70400072 2.37800058,7.8359994 2.262,7.956 C2.14599942,8.0760006 2.02100067,8.18699949 1.887,8.289 C1.75299933,8.39100051 1.62800058,8.48799954 1.512,8.58 C1.39599942,8.67200046 1.29900039,8.76199956 1.221,8.85 C1.14299961,8.93800044 1.104,9.02799954 1.104,9.12 L2.682,9.12 L2.682,9.888 L0.108,9.888 L0.108,9.378 Z" id="2"  ></path>
            <path d="M0.342,3.042 L0.996,3.042 L0.996,0.942 L0.366,1.278 L0,0.618 L1.122,0 L1.836,0 L1.836,3.042 L2.454,3.042 L2.454,3.78 L0.342,3.78 L0.342,3.042 Z" id="1"  ></path>
        </g>
    </g>
</svg>
