<?xml version="1.0" encoding="UTF-8" standalone="no"?>
<svg width="8px" height="8px" viewBox="0 0 8 8" version="1.1" xmlns="http://www.w3.org/2000/svg" xmlns:xlink="http://www.w3.org/1999/xlink"  >
    <title>remove</title>

    <defs></defs>
    <g id="Page-1" stroke="none" stroke-width="1" fill="none" fill-rule="evenodd"  >
        <g id="Artboard-1"  transform="translate(-7.000000, -7.000000)" fill="#FFFFFF">
            <g id="close"  transform="translate(7.000000, 7.000000)">
                <path d="M5.66482967,3.94792702 L8.01807658,1.64583765 C8.05002111,1.60417087 8.07131746,1.5625041 8.07131746,1.51042063 C8.07131746,1.45833716 8.05002111,1.41667038 8.01807658,1.37500361 L6.66575822,0.0520834699 C6.62316552,0.020833388 6.58057281,0 6.52733193,0 C6.47409105,0 6.43149835,0.020833388 6.38890564,0.0520834699 L4.03565873,2.35417284 L1.68241182,0.0520834699 C1.63981912,0.020833388 1.59722641,0 1.54398553,0 C1.49074465,0 1.44815195,0.020833388 1.40555924,0.0520834699 L0.0532408804,1.37500361 C0.0212963521,1.41667038 0,1.45833716 0,1.51042063 C0,1.5625041 0.0212963521,1.60417087 0.0532408804,1.64583765 L2.40648779,3.94792702 L0.0532408804,6.25001639 C0.0212963521,6.29168317 0,6.33334994 0,6.38543341 C0,6.43751688 0.0212963521,6.47918366 0.0532408804,6.52085043 L1.40555924,7.84377057 C1.44815195,7.87502065 1.49074465,7.89585404 1.54398553,7.89585404 C1.59722641,7.89585404 1.63981912,7.87502065 1.68241182,7.84377057 L4.03565873,5.5416812 L6.38890564,7.84377057 C6.43149835,7.87502065 6.47409105,7.89585404 6.52733193,7.89585404 C6.58057281,7.89585404 6.62316552,7.87502065 6.66575822,7.84377057 L8.01807658,6.52085043 C8.05002111,6.47918366 8.07131746,6.43751688 8.07131746,6.38543341 C8.07131746,6.33334994 8.05002111,6.29168317 8.01807658,6.25001639 L5.66482967,3.94792702 Z"  ></path>
            </g>
        </g>
    </g>
</svg>
