<?xml version="1.0" encoding="UTF-8" standalone="no"?>
<svg width="61px" height="61px" viewBox="0 0 61 61" version="1.1" xmlns="http://www.w3.org/2000/svg" xmlns:xlink="http://www.w3.org/1999/xlink"  >
    <title>instagram</title>
    
    <defs></defs>
    <g id="Page-1" stroke="none" stroke-width="1" fill="none" fill-rule="evenodd"  >
        <g id="Oval-9-+--+-" >
            <g id="Oval-9-+-" fill="#3F729B"  >
                <path d="M30.5,61 C47.3446857,61 61,47.3446857 61,30.5 C61,13.6553143 47.3446857,0 30.5,0 C13.6553143,0 0,13.6553143 0,30.5 C0,47.3446857 13.6553143,61 30.5,61 Z" id="Oval-9"></path>
            </g>
            <path d="M39.4960938,19 L22.5039062,19 C20.5703125,19 19,20.5703125 19,22.5039062 L19,39.4960938 C19,41.4296875 20.5703125,43 22.5039062,43 L39.4960938,43 C41.4296875,43 43,41.4296875 43,39.4960938 L43,22.5039062 C43,20.5703125 41.4296875,19 39.4960938,19 Z M31,26.5 C33.484375,26.5 35.5,28.515625 35.5,31 C35.5,33.484375 33.484375,35.5 31,35.5 C28.515625,35.5 26.5,33.484375 26.5,31 C26.5,28.515625 28.515625,26.5 31,26.5 Z M40.5039062,40 C40.5039062,40.28125 40.28125,40.5039062 40,40.5039062 L22,40.5039062 C21.71875,40.5039062 21.4960938,40.28125 21.4960938,40 L21.4960938,29.5 L24.15625,29.5 C24.0507812,29.9804688 24.0039062,30.484375 24.0039062,31 C24.0039062,34.8671875 27.1328125,37.9960938 31,37.9960938 C34.8671875,37.9960938 37.9960938,34.8671875 37.9960938,31 C37.9960938,30.484375 37.9492188,29.9804688 37.84375,29.5 L40.5039062,29.5 L40.5039062,40 Z M40.5039062,25 C40.5039062,25.28125 40.28125,25.5039062 40,25.5039062 L37,25.5039062 C36.71875,25.5039062 36.4960938,25.28125 36.4960938,25 L36.4960938,22 C36.4960938,21.71875 36.71875,21.4960938 37,21.4960938 L40,21.4960938 C40.28125,21.4960938 40.5039062,21.71875 40.5039062,22 L40.5039062,25 Z" id="" fill="#FFFFFF"  ></path>
        </g>
    </g>
</svg>
