<?xml version="1.0" encoding="UTF-8" standalone="no"?>
<svg width="61px" height="61px" viewBox="0 0 61 61" version="1.1" xmlns="http://www.w3.org/2000/svg" xmlns:xlink="http://www.w3.org/1999/xlink"  >
    <title>social-facebook</title>
    
    <defs></defs>
    <g id="Page-1" stroke="none" stroke-width="1" fill="none" fill-rule="evenodd"  >
        <g id="Oval-9-+-" >
            <path d="M30.5,61 C47.3446857,61 61,47.3446857 61,30.5 C61,13.6553143 47.3446857,0 30.5,0 C13.6553143,0 0,13.6553143 0,30.5 C0,47.3446857 13.6553143,61 30.5,61 Z" id="Oval-9" fill="#3B5998"  ></path>
            <path d="M27.125,44 L32.1875,44 L32.1875,31.6206055 L36.9072266,31.6206055 L37.25,27.125 L32.1875,27.125 L32.1875,23.75 C32.1875,22.4316406 32.4379883,21.4956055 34.1518555,21.4956055 L37.0654297,21.4956055 L37.25,17.2504883 C37.25,17.2504883 35.7866211,17 33.875,17 C29.1289062,17 27.125,20.0058594 27.125,23.1831055 L27.125,27.125 L23.75,27.125 L23.75,31.6206055 L27.125,31.6206055 L27.125,44 Z" id="" fill="#FFFFFF"  ></path>
        </g>
    </g>
</svg>
