<?xml version="1.0" encoding="UTF-8" standalone="no"?>
<svg width="61px" height="61px" viewBox="0 0 61 61" version="1.1" xmlns="http://www.w3.org/2000/svg" xmlns:xlink="http://www.w3.org/1999/xlink"  >
    <title>twitter</title>
    
    <defs></defs>
    <g id="Page-1" stroke="none" stroke-width="1" fill="none" fill-rule="evenodd"  >
        <g id="Oval-9-+-" >
            <path d="M30.5,61 C47.3446857,61 61,47.3446857 61,30.5 C61,13.6553143 47.3446857,0 30.5,0 C13.6553143,0 0,13.6553143 0,30.5 C0,47.3446857 13.6553143,61 30.5,61 Z" id="Oval-9" fill="#00ACEE"  ></path>
            <path d="M43,23.4799805 C42.0722656,23.8950195 41.0957031,24.1757812 40.0458984,24.2978516 C41.1201172,23.6630859 41.9257812,22.6499023 42.3041992,21.4536133 C41.3276367,22.0395508 40.2167969,22.4667969 39.0693359,22.6987305 C38.1049805,21.722168 36.7744141,21.0874023 35.2973633,21.0874023 C32.465332,21.0874023 30.1826172,23.3701172 30.1826172,26.2021484 C30.1826172,26.6049805 30.2070312,27.0200195 30.2924805,27.3862305 C26.0444336,27.1542969 22.284668,25.2255859 19.7333984,22.125 C19.3061523,22.8818359 19.0375977,23.6630859 19.0375977,24.6152344 C19.0375977,26.3730469 19.940918,27.9355469 21.3325195,28.8632812 C20.4902344,28.8388672 19.7089844,28.6069336 19.0131836,28.2285156 L19.0131836,28.2895508 C19.0131836,30.7797852 20.7832031,32.8549805 23.1269531,33.3188477 C22.6875,33.440918 22.2236328,33.5019531 21.7597656,33.5019531 C21.4423828,33.5019531 21.125,33.465332 20.8076172,33.4042969 C21.4423828,35.4306641 23.3588867,36.9443359 25.5805664,36.96875 C23.847168,38.3603516 21.6132812,39.3979492 19.2207031,39.3979492 C18.8056641,39.3979492 18.402832,39.3735352 18,39.3125 C20.2583008,40.7651367 22.9804688,41.3999023 25.8735352,41.3999023 C35.2973633,41.3999023 40.4487305,33.5874023 40.4487305,26.8125 L40.4487305,26.1411133 C41.4375,25.4208984 42.3041992,24.5297852 43,23.4799805 L43,23.4799805 Z" id="" fill="#FFFFFF"  ></path>
        </g>
    </g>
</svg>
