<?xml version="1.0" encoding="UTF-8" standalone="no"?>
<svg width="61px" height="61px" viewBox="0 0 61 61" version="1.1" xmlns="http://www.w3.org/2000/svg" xmlns:xlink="http://www.w3.org/1999/xlink"  >
    <title>social-flickr</title>
    
    <defs></defs>
    <g id="Page-1" stroke="none" stroke-width="1" fill="none" fill-rule="evenodd"  >
        <g id="Oval-9-+-" >
            <path d="M30.5,61 C47.3446857,61 61,47.3446857 61,30.5 C61,13.6553143 47.3446857,0 30.5,0 C13.6553143,0 0,13.6553143 0,30.5 C0,47.3446857 13.6553143,61 30.5,61 Z" id="Oval-9" fill="#FF0084"  ></path>
            <path d="M29.3793945,30.5 C29.3793945,27.0986328 26.5976562,24.3168945 23.1831055,24.3168945 C19.7817383,24.3168945 17,27.0986328 17,30.5 C17,33.9013672 19.7817383,36.6831055 23.1831055,36.6831055 C26.5976562,36.6831055 29.3793945,33.9013672 29.3793945,30.5 Z M44,30.5 C44,27.0986328 41.2182617,24.3168945 37.8168945,24.3168945 C34.4023438,24.3168945 31.6206055,27.0986328 31.6206055,30.5 C31.6206055,33.9013672 34.4023438,36.6831055 37.8168945,36.6831055 C41.2182617,36.6831055 44,33.9013672 44,30.5 Z" id="" fill="#FFFFFF"  ></path>
        </g>
    </g>
</svg>
