<?xml version="1.0" encoding="UTF-8" standalone="no"?>
<svg width="61px" height="61px" viewBox="0 0 61 61" version="1.1" xmlns="http://www.w3.org/2000/svg" xmlns:xlink="http://www.w3.org/1999/xlink"  >
    <title>social-linkedin</title>
    
    <defs></defs>
    <g id="Page-1" stroke="none" stroke-width="1" fill="none" fill-rule="evenodd"  >
        <g id="Oval-9-+-" >
            <path d="M30.5,61 C47.3446857,61 61,47.3446857 61,30.5 C61,13.6553143 47.3446857,0 30.5,0 C13.6553143,0 0,13.6553143 0,30.5 C0,47.3446857 13.6553143,61 30.5,61 Z" id="Oval-9" fill="#0E76A8"  ></path>
            <path d="M19.5249023,24.8500977 L19.5249023,41 L24.7250977,41 L24.7250977,24.8500977 L19.5249023,24.8500977 Z M33.0625,31.625 C33.0625,29.5375977 34.3930664,28.5 35.9555664,28.5 C37.5180664,28.5 38.7875977,29.5375977 38.7875977,32.1499023 L38.7875977,41 L44,41 L44,31.625 C44,26.9375 41.3999023,24.3374023 37.75,24.3374023 C35.6625977,24.3374023 34.1000977,25.5214844 33.0625,27.0839844 L32.8916016,24.8500977 L27.7646484,24.8500977 C27.7646484,25.3994141 27.8500977,28.5 27.8500977,28.5 L27.8500977,41 L33.0625,41 L33.0625,31.625 Z M22.1005859,22.25 C24.0292969,22.25 25.25,20.9804688 25.25,19.3813477 C25.2255859,17.7700195 24.0292969,16.5249023 22.1494141,16.5249023 C20.2451172,16.5249023 19,17.7700195 19,19.3813477 C19,20.9804688 20.2207031,22.25 22.0639648,22.25 L22.1005859,22.25 Z" id="" fill="#FFFFFF"  ></path>
        </g>
    </g>
</svg>
