<?xml version="1.0" encoding="UTF-8" standalone="no"?>
<svg width="61px" height="61px" viewBox="0 0 61 61" version="1.1" xmlns="http://www.w3.org/2000/svg" xmlns:xlink="http://www.w3.org/1999/xlink"  >
    <title>social-googleplus</title>
    
    <defs></defs>
    <g id="Page-1" stroke="none" stroke-width="1" fill="none" fill-rule="evenodd"  >
        <g id="Oval-9-+-" >
            <path d="M30.5,61 C47.3446857,61 61,47.3446857 61,30.5 C61,13.6553143 47.3446857,0 30.5,0 C13.6553143,0 0,13.6553143 0,30.5 C0,47.3446857 13.6553143,61 30.5,61 Z" id="Oval-9" fill="#DD4B39"  ></path>
            <path d="M46,24.1831055 L41.5043945,24.1831055 L41.5043945,19.6875 L40.3706055,19.6875 L40.3706055,24.1831055 L35.875,24.1831055 L35.875,25.3168945 L40.3706055,25.3168945 L40.3706055,29.8125 L41.5043945,29.8125 L41.5043945,25.3168945 L46,25.3168945 L46,24.1831055 Z M30.7202148,33.3720703 C30.0610352,32.9370117 28.8481445,31.8427734 28.8481445,31.1835938 C28.8481445,30.4321289 29.059082,30.0629883 30.1928711,29.1533203 C31.3793945,28.2436523 32.1835938,26.9648438 32.1835938,25.4750977 C32.1835938,23.6821289 31.4057617,21.9682617 29.902832,21.4013672 L32.1572266,21.4013672 L33.7524414,20.2543945 L26.6860352,20.2543945 C23.4956055,20.2543945 20.5292969,22.6538086 20.5292969,25.4355469 C20.5292969,28.2832031 22.6914062,30.5639648 25.9082031,30.5639648 C26.1191406,30.5639648 26.3432617,30.5639648 26.5673828,30.5375977 C26.3432617,30.9331055 26.2246094,31.4077148 26.2246094,31.8691406 C26.2246094,32.6601562 26.6201172,33.2797852 27.1606445,33.8071289 L25.9345703,33.8071289 C22.0322266,33.8071289 19,36.3120117 19,38.9091797 C19,41.4667969 22.309082,43.0620117 26.2246094,43.0620117 C30.7202148,43.0620117 33.1855469,40.5307617 33.1855469,37.9731445 C33.1855469,35.9428711 32.565918,34.7167969 30.7202148,33.3720703 Z M26.9365234,29.8388672 C25.1303711,29.7861328 23.3769531,27.8085938 23.0605469,25.4091797 C22.7441406,23.0361328 23.9702148,21.1904297 25.7763672,21.2563477 C27.6220703,21.309082 29.3491211,23.2207031 29.6523438,25.6201172 C29.96875,28.0063477 28.7558594,29.9047852 26.9365234,29.8388672 Z M26.2246094,41.9414062 C23.4956055,41.9414062 21.5576172,40.2143555 21.5576172,38.1577148 C21.5576172,36.1274414 23.9702148,34.4663086 26.6860352,34.4663086 C27.3188477,34.5058594 27.9121094,34.5981445 28.4394531,34.7563477 C29.902832,35.784668 30.9707031,36.3779297 31.2871094,37.5249023 C31.3134766,37.7753906 31.3398438,37.9995117 31.3398438,38.25 C31.3398438,40.3066406 30.034668,41.9414062 26.2246094,41.9414062 Z" id="" fill="#FFFFFF"  ></path>
        </g>
    </g>
</svg>
