<?xml version="1.0" encoding="UTF-8" standalone="no"?>
<svg width="536px" height="341px" viewBox="0 0 536 341" version="1.1" xmlns="http://www.w3.org/2000/svg" xmlns:xlink="http://www.w3.org/1999/xlink"  >
    <title>speech-bg</title>

    <defs></defs>
    <g id="Page-1" stroke="none" stroke-width="1" fill="none" fill-rule="evenodd"  >
        <g id="Rectangle-37-+-?"  transform="translate(490.000000, 126.000000)">
            <path d="M9.46446609,34 L7.9994481,34 C3.59038272,34 0,30.4140532 0,25.9905637 L0,9.00943632 C0,4.57865123 3.58147491,1 7.9994481,1 L38.0005519,1 C42.4096173,1 46,4.58594679 46,9.00943632 L46,25.9905637 C46,30.4213488 42.4185251,34 38.0005519,34 L20.0710678,34 L9.46446609,44.6066017 L9.46446609,34 Z" id="Rectangle-37" stroke="#979797" stroke-width="2"  ></path>
            <text id="?" fill="#979797"  font-family=".Lucida Grande UI" font-size="21" font-weight="normal" line-spacing="28">
                <tspan x="17.5664062" y="20.4538879">?</tspan>
            </text>
        </g>
        <g id="Rectangle-37-+-?"  transform="translate(437.000000, 15.000000)">
            <path d="M14.1201585,49.7250366 L8.00681524,49.7250366 C3.58111442,49.7250366 0,46.1467705 0,41.7327556 L0,8.48419383 C0,4.07229547 3.58477329,0.491912842 8.00681524,0.491912842 L60.6211755,0.491912842 C65.0468763,0.491912842 68.6279907,4.07017892 68.6279907,8.48419383 L68.6279907,41.7327556 C68.6279907,46.144654 65.0432174,49.7250366 60.6211755,49.7250366 L29.9442838,49.7250366 L14.1201585,65.5491619 L14.1201585,49.7250366 Z" id="Rectangle-37" stroke="#979797" stroke-width="2"  ></path>
            <text id="?" fill="#979797"  font-family=".Lucida Grande UI" font-size="30.75" font-weight="normal" line-spacing="28">
                <tspan x="26.2075471" y="42.6771612">?</tspan>
            </text>
        </g>
        <g id="Rectangle-37-+-?"  transform="translate(453.000000, 290.000000)">
            <path d="M11.3476283,38 L7.99694132,38 C3.58491065,38 0,34.417922 0,29.9992049 L0,8.00079513 C0,3.57494774 3.58035259,0 7.99694132,0 L46.0030587,0 C50.4150894,0 54,3.582078 54,8.00079513 L54,29.9992049 C54,34.4250523 50.4196474,38 46.0030587,38 L23.9852814,38 L11.6109127,50.3743687 L11.3476283,38 Z" id="Rectangle-37" stroke="#979797" stroke-width="2"  ></path>
            <text id="?" fill="#979797"  font-family=".Lucida Grande UI" font-size="24" font-weight="normal" line-spacing="28">
                <tspan x="20" y="27">?</tspan>
            </text>
        </g>
        <g id="Rectangle-37-+-?"  transform="translate(37.000000, 267.000000)">
            <path d="M25.9289322,34 L7.9994481,34 C3.59038272,34 0,30.4140532 0,25.9905637 L0,9.00943632 C0,4.57865123 3.58147491,1 7.9994481,1 L38.0005519,1 C42.4096173,1 46,4.58594679 46,9.00943632 L46,25.9905637 C46,30.4213488 42.4185251,34 38.0005519,34 L36.5355339,34 L36.5355339,44.6066017 L25.9289322,34 Z" id="Rectangle-37" stroke="#979797" stroke-width="2"  ></path>
            <text id="?" fill="#979797"  font-family=".Lucida Grande UI" font-size="21" font-weight="normal" line-spacing="28">
                <tspan x="17.5664062" y="20.4538879">?</tspan>
            </text>
        </g>
        <g id="Rectangle-37-+-?"  transform="translate(0.000000, 80.000000)">
            <path d="M31.4957844,40.5 L7.99367773,40.5 C3.5882405,40.5 0,36.9176079 0,32.4985033 L0,8.00149673 C0,3.57633871 3.57889143,0 7.99367773,0 L48.0063223,0 C52.4117595,0 56,3.58239211 56,8.00149673 L56,32.4985033 C56,36.9236613 52.4211086,40.5 48.0063223,40.5 L44.4954387,40.5 L44.4431052,53.4473208 L31.4957844,40.5 Z" id="Rectangle-37" stroke="#979797" stroke-width="2"  ></path>
            <text id="?" fill="#979797"  font-family=".Lucida Grande UI" font-size="26" font-weight="normal" line-spacing="28">
                <tspan x="20.3117854" y="30.7084521">?</tspan>
            </text>
        </g>
        <g id="Rectangle-37-+-?"  transform="translate(128.000000, -8.000000)">
            <path d="M18.1902655,31.3906146 L7.99479655,31.3906146 C3.58479619,31.3906146 0,27.8086033 0,23.3899686 L0,16.0006459 C0,11.5779928 3.57939234,8 7.99479655,8 L24.3477816,8 C28.757782,8 32.3425781,11.5820112 32.3425781,16.0006459 L32.3425781,23.3899686 C32.3425781,27.3514587 29.4707353,30.6352549 25.6986236,31.2770045 L25.6679393,38.8682884 L18.1902655,31.3906146 Z" id="Rectangle-37" stroke="#979797" stroke-width="2"  ></path>
            <text id="?" fill="#979797"  font-family=".Lucida Grande UI" font-size="14.8571429" font-weight="normal" line-spacing="28">
                <tspan x="11.7309912" y="14.2968939">?</tspan>
            </text>
        </g>
    </g>
</svg>
