<?xml version="1.0" encoding="UTF-8" standalone="no"?>
<svg width="151px" height="63px" viewBox="0 0 151 63" version="1.1" xmlns="http://www.w3.org/2000/svg" xmlns:xlink="http://www.w3.org/1999/xlink"  >
    <title>stripe</title>
    
    <defs>
        <path d="M11.6895563,26.6691825 C11.6895563,28.043723 12.5744036,28.5016429 14.659146,29.4834575 L15.9231059,30.0725463 C18.8926956,31.4470868 23,33.6726634 23,40.2186148 C23,50.691044 15.4806823,52 10.1097949,52 C6.63447044,52 2.96996657,51.1493542 0.505357845,50.3639025 L0.505357845,41.396402 C2.65378818,41.9858811 6.38197994,42.9017209 8.02467558,42.9017209 C9.85730436,42.9017209 11.2471327,42.640164 11.2471327,40.9380917 C11.2471327,39.6291356 10.3626622,39.0396565 8.40378818,38.1234263 L6.88733779,37.403559 C4.04399331,36.0290185 0,33.6726634 0,27.3234653 C0,18.0288233 7.01358304,16 12.8902051,16 C17.3129342,16 20.2195897,17.0470087 21.7360401,17.6360975 L21.7360401,26.3416507 C19.9667224,25.7525619 16.3655296,24.9671102 14.2170992,24.9671102 C12.7639599,24.9671102 11.6895563,25.359836 11.6895563,26.6691825 L11.6895563,26.6691825 Z M42.6560636,41.7429623 C43.4223492,41.7429623 46.1056826,41.3572524 47,41.2288102 L47,49.9076665 C45.1473492,50.3574058 41.0587144,51 38.375,51 C34.925,51 28.4719682,50.6146735 28.4719682,41.1647809 L28.4719682,24.0643361 L24,24.0643361 L24,16.2857252 L28.4719682,16.2857252 L30.0053015,8.57152716 L40.6109841,6 L40.6109841,16.2857252 L47,16.2857252 L45.4030318,24.0643361 L40.6109841,24.0643361 L40.6109841,38.9789636 C40.6109841,41.2928396 41.3140159,41.7429623 42.6560636,41.7429623 L42.6560636,41.7429623 Z M65.6655649,26.3054417 C63.8080027,26.3054417 62.3836254,27.0832109 61.7646842,27.4717089 L61.7646842,51 L50,51 L50,16.6478833 L59.3498532,16.6478833 L61.0833318,19.9534023 C61.7646842,17.8145371 63.6218771,16 66.346548,16 C68.2041103,16 69.4427313,16.388498 70,16.7128262 L70,26.953325 C68.8234208,26.6293834 67.2756984,26.3054417 65.6655649,26.3054417 L65.6655649,26.3054417 Z M73,16 L85,16 L85,50 L73,50 L73,16 Z M78.9996193,12 C75.616839,12 73,9.28419863 73,6 C73,2.71580137 75.616839,0 78.9996193,0 C82.3827803,0 85,2.71580137 85,6 C85,9.28419863 82.3827803,12 78.9996193,12 L78.9996193,12 Z M106.027627,51.4109905 C104.531244,51.4109905 102.972001,50.9605628 101.849806,50.7029012 L101.849806,63 L90,63 L90,16.6435779 L99.6039299,16.6435779 L101.35064,18.7682296 C103.158723,17.0943896 105.715927,16 108.397737,16 C113.262191,16 119,17.4161785 119,33.5125371 C119,51.1537129 110.393287,51.4109905 106.027627,51.4109905 L106.027627,51.4109905 Z M104.646832,25 C103.99986,25 102.705565,25.5848333 102,26.0398329 L102,42.6752218 C102.528735,42.8701662 103.470423,43 103.882324,43 C105.823591,43 107,41.1807768 107,33.5779433 C107,25.8445009 106.470563,25 104.646832,25 L104.646832,25 Z M134.865797,38.1234263 C134.865797,41.8547123 136.623332,42.5745795 139.574149,42.5745795 C142.964162,42.5745795 147.546709,41.5267901 149.304619,41.1996487 L149.304619,50.2327337 C147.923752,50.7566284 143.717499,52 139.574149,52 C132.103314,52 123,50.7566284 123,34.1309737 C123,19.4689482 130.157444,16 137.690808,16 C145.412506,16 151,20.1236215 151,33.9998048 L151,38.1234263 L134.865797,38.1234263 L134.865797,38.1234263 Z M137.81257,23 C134.812123,23 135.124879,26.868596 135,31 L140,31 C140,26.3441533 140,23 137.81257,23 L137.81257,23 Z" id="path-1"></path>
        <mask id="mask-2"  fill="white">
            <use xlink:href="#path-1"></use>
        </mask>
    </defs>
    <g id="Page-1" stroke="none" stroke-width="1" fill="none" fill-rule="evenodd"  >
        <use id="Clip-1-copy" fill="#262626"   xlink:href="#path-1"></use>
    </g>
</svg>
