<?xml version="1.0" encoding="UTF-8"?><!DOCTYPE svg PUBLIC "-//W3C//DTD SVG 1.1 Tiny//EN" "http://www.w3.org/Graphics/SVG/1.1/DTD/svg11-tiny.dtd"><svg baseProfile="tiny" xmlns="http://www.w3.org/2000/svg" width="163" height="24" preserveAspectRatio="xMaxYMax meet" viewBox="0 0 163 24"><g id="close" transform="translate(0,0)"><title>close</title><desc>Created with Sketch.</desc><path d="M17.734 3.031l-1.766-1.766-6.719 6.719-6.719-6.719-1.766 1.766 6.719 6.719-6.719 6.719 1.766 1.766 6.719-6.719 6.719 6.719 1.766-1.766-6.719-6.719 6.719-6.719z" fill="#777D93"/></g><g id="edit" transform="translate(18,0)"><title>edit</title><desc>Created with Sketch.</desc><path d="M21.983 4.148l-2.873-2.873c-.494-.496-1.152-.775-1.861-.775-.696 0-1.367.28-1.861.775l-2.43 2.441 6.582 6.623 2.443-2.441c.494-.508.759-1.169.759-1.869 0-.712-.266-1.373-.759-1.881zm-1.43 2.301l-1.013 1.017-3.722-3.75 1-1.004c.114-.114.266-.178.43-.178.165 0 .316.064.43.178l2.873 2.886c.114.114.165.267.165.432 0 .153-.051.318-.165.419zm-11.329 11.377l-4.177 1.411-.962-.953 1.405-4.195 7.747-7.78-1.43-1.436-8.076 8.123-3.354 9.966 9.937-3.356 8.089-8.123-1.43-1.436-7.747 7.78zm-2.203-1.525c.19.203.456.305.709.305.266 0 .519-.102.722-.305l7.367-7.398-1.43-1.436-7.367 7.398c-.203.203-.304.458-.304.725 0 .254.101.521.304.712z" fill="#777D93"/></g><g id="email" transform="translate(42,0)"><title>email</title><desc>Created with Sketch.</desc><path d="M20.346 14.597l-3.995-5.105-1.783 1.336 3.856 4.922h-14.278l4.064-5.203-1.783-1.336-4.216 5.4v-8.452l-2.212-1.912v13.753h22.558v-13.317l-2.212 1.898v8.016zm-20.346-14.597v1.898l9.496 7.341c.581.436 1.327.647 2.073.647.76 0 1.507-.211 2.087-.647l8.901-6.905v-2.334h-22.558zm12.343 7.467c-.401.295-1.133.295-1.534 0l-6.925-5.217h15.384l-6.925 5.217z" fill="#777D93"/></g><g id="files" transform="translate(65,0)"><title>files</title><desc>Created with Sketch.</desc><path d="M3.42 3.356v18.644h9.357l6.223-6.141v-12.503h-15.58zm13.68 11.734l-5.118 5.046h-6.662v-14.915h11.78v9.87zm-5.32-.175h3.8v-1.864h-5.7v5.593h1.9v-3.729zm3.8-14.915h-15.58v18.644h1.9v-16.78h13.68v-1.864z" fill="#777D93"/></g><g id="lock" transform="translate(84,0)"><title>lock-dark</title><desc>Created with Sketch.</desc><path d="M11 7h-1v-3c0-2.204-1.796-4-4-4-2.204 0-4 1.796-4 4v3h-1c-.556 0-1 .444-1 1v7c0 .556.444 1 1 1h10c.556 0 1-.444 1-1v-7c0-.556-.444-1-1-1zm-7-3c0-1.111.889-2 2-2s2 .889 2 2v3h-4v-3z" fill="#959698"/></g><g id="menu" transform="translate(96,0)"><title>menu</title><path d="M0 0v2h17v-2h-17zm0 5v2h17v-2h-17zm0 5v2h17v-2h-17z" fill="#fff"/></g><g id="navigateleft" transform="translate(113,0)"><title>navigateleft</title><desc>Created with Sketch.</desc><path d="M8.005 16.005c.093 0 .167-.037.241-.093l2.333-2.333c.13-.13.13-.352 0-.481l-5.111-5.093 5.111-5.093c.13-.13.13-.352 0-.481l-2.333-2.333c-.13-.13-.352-.13-.481 0l-7.667 7.667c-.13.13-.13.352 0 .481l7.667 7.667c.074.056.148.093.241.093z" fill-opacity=".8" fill="#fff"/></g><g id="search" transform="translate(124,0)"><title>search</title><desc>Created with Sketch.</desc><path d="M18.024 16.782l-4.626-4.626c.978-1.253 1.527-2.791 1.527-4.418 0-1.923-.747-3.725-2.11-5.077-1.352-1.352-3.154-2.099-5.077-2.099-1.912 0-3.714.747-5.077 2.099-1.352 1.352-2.099 3.154-2.099 5.077s.747 3.725 2.099 5.077c1.363 1.352 3.165 2.099 5.077 2.099 1.626 0 3.165-.538 4.418-1.516l4.626 4.626 1.242-1.242zm-14.132-5.209c-1.022-1.022-1.582-2.385-1.582-3.835 0-1.451.56-2.813 1.593-3.846 1.022-1.022 2.385-1.582 3.835-1.582 1.451 0 2.813.56 3.846 1.582 1.022 1.033 1.582 2.396 1.582 3.846 0 1.451-.56 2.813-1.582 3.835-1.033 1.033-2.396 1.593-3.846 1.593-1.451 0-2.813-.56-3.846-1.593z" fill="#777D93"/></g><g id="trash" transform="translate(143,0)"><title>trash</title><desc>Created with Sketch.</desc><path d="M15.227 19.925h-11.455v-12.453h-2.045v14.528h15.545v-14.528h-2.045v12.453zm-9-12.453v10.377h2.045v-10.377h-2.045zm4.5 0v10.377h2.045v-10.377h-2.045zm3.58-3.736l-1.24-3.736h-7.134l-1.24 3.736h-4.193v2.075h18v-2.075h-4.193zm-7.453 0l.55-1.66h4.193l.55 1.66h-5.293z" fill="#777D93"/></g></svg>