<?xml version="1.0" encoding="UTF-8" standalone="no"?>
<svg width="61px" height="61px" viewBox="0 0 61 61" version="1.1" xmlns="http://www.w3.org/2000/svg" xmlns:xlink="http://www.w3.org/1999/xlink"  >
    <title>ticket-icon</title>
    
    <defs></defs>
    <g id="Page-1" stroke="none" stroke-width="1" fill="none" fill-rule="evenodd"  >
        <path d="M30.5,61 C47.3446857,61 61,47.3446857 61,30.5 C61,13.6553143 47.3446857,0 30.5,0 C13.6553143,0 0,13.6553143 0,30.5 C0,47.3446857 13.6553143,61 30.5,61 Z" id="Oval-9" fill="#82C16B"  ></path>
        <path d="M43.9999646,27.6071644 L40.6551029,24.2623027 C40.0222912,24.7444449 38.2745257,24.8047127 37.2198396,23.7801604 C36.1952873,22.7254743 36.2555551,21.0078426 36.7376973,20.3448971 L33.3928356,17.0000354 L17,33.3928711 L20.3448617,36.7377327 C21.0379411,36.2857244 22.7254389,36.2254566 23.7499911,37.2500089 C24.7745434,38.2745611 24.7142756,39.9620589 24.2622673,40.6551383 L27.6071289,44 L43.9999646,27.6071644 Z M23.7499911,32.4285866 L28.5714134,37.2500089 L37.2499734,28.5714488 L32.4285512,23.7500266 L23.7499911,32.4285866 Z M28.5714134,39.1785778 L21.8214222,32.4285866 L32.4285512,21.8214577 L39.1785423,28.5714488 L28.5714134,39.1785778 Z" id="🎫" fill="#FFFFFF"  ></path>
    </g>
</svg>
