<?xml version="1.0" encoding="UTF-8" standalone="no"?>
<svg width="61px" height="61px" viewBox="0 0 61 61" version="1.1" xmlns="http://www.w3.org/2000/svg" xmlns:xlink="http://www.w3.org/1999/xlink"  >
    <title>time-icon</title>
    
    <defs></defs>
    <g id="Page-1" stroke="none" stroke-width="1" fill="none" fill-rule="evenodd"  >
        <path d="M30.5,61 C47.3446857,61 61,47.3446857 61,30.5 C61,13.6553143 47.3446857,0 30.5,0 C13.6553143,0 0,13.6553143 0,30.5 C0,47.3446857 13.6553143,61 30.5,61 Z" id="Oval-9" fill="#8898A0"  ></path>
        <path d="M30.4999823,17.0000354 C23.0569117,17.0000354 17,23.0569471 17,30.5000177 C17,37.9430883 23.0569117,44 30.4999823,44 C37.9430529,44 43.9999646,37.9430883 43.9999646,30.5000177 C43.9999646,23.0569471 37.9430529,17.0000354 30.4999823,17.0000354 Z M32.9106934,30.5000177 C32.9106934,29.5055994 32.3080156,28.6618505 31.4642667,28.3002438 L31.4642667,21.8214577 C31.4642667,21.2790477 31.0423923,20.8571732 30.4999823,20.8571732 C29.9575723,20.8571732 29.5356978,21.2790477 29.5356978,21.8214577 L29.5356978,28.3002438 C28.963154,28.5413149 28.5412795,28.9933232 28.3002084,29.5357333 L22.7857067,29.5357333 C22.2432967,29.5357333 21.8214222,29.9576077 21.8214222,30.5000177 C21.8214222,31.0424277 22.2432967,31.4643022 22.7857067,31.4643022 L28.3002084,31.4643022 C28.6618151,32.308051 29.505564,32.9107288 30.4999823,32.9107288 C31.8258734,32.9107288 32.9106934,31.8259088 32.9106934,30.5000177 Z M30.4999823,41.1071467 C24.6540078,41.1071467 19.8928533,36.3459922 19.8928533,30.5000177 C19.8928533,24.6540432 24.6540078,19.8928888 30.4999823,19.8928888 C36.3459568,19.8928888 41.1071112,24.6540432 41.1071112,30.5000177 C41.1071112,36.3459922 36.3459568,41.1071467 30.4999823,41.1071467 Z" id="â²" fill="#FFFFFF"  ></path>
    </g>
</svg>
