<?xml version="1.0" encoding="UTF-8" standalone="no"?>
<svg width="16px" height="16px" viewBox="0 0 16 16" version="1.1" xmlns="http://www.w3.org/2000/svg" xmlns:xlink="http://www.w3.org/1999/xlink"  >
    
    <title>trash</title>
    
    <defs></defs>
    <g id="Page-1" stroke="none" stroke-width="1" fill="none" fill-rule="evenodd"  >
        <path d="M2.28571429,16 L13.7142857,16 L14.2857143,5.14285714 L1.71428571,5.14285714 L2.28571429,16 Z M10.2857143,6.85714286 C10.2857143,6.53571429 10.5357143,6.28571429 10.8571429,6.28571429 C11.1785714,6.28571429 11.4285714,6.53571429 11.4285714,6.85714286 L11.4285714,14.2857143 C11.4285714,14.6071429 11.1785714,14.8571429 10.8571429,14.8571429 C10.5357143,14.8571429 10.2857143,14.6071429 10.2857143,14.2857143 L10.2857143,6.85714286 Z M7.42857143,6.85714286 C7.42857143,6.53571429 7.67857143,6.28571429 8,6.28571429 C8.32142857,6.28571429 8.57142857,6.53571429 8.57142857,6.85714286 L8.57142857,14.2857143 C8.57142857,14.6071429 8.32142857,14.8571429 8,14.8571429 C7.67857143,14.8571429 7.42857143,14.6071429 7.42857143,14.2857143 L7.42857143,6.85714286 Z M4.57142857,6.85714286 C4.57142857,6.53571429 4.82142857,6.28571429 5.14285714,6.28571429 C5.46428571,6.28571429 5.71428571,6.53571429 5.71428571,6.85714286 L5.71428571,14.2857143 C5.71428571,14.6071429 5.46428571,14.8571429 5.14285714,14.8571429 C4.82142857,14.8571429 4.57142857,14.6071429 4.57142857,14.2857143 L4.57142857,6.85714286 Z M14.375,2.28571429 L12,2.28571429 L12,2.14285714 C12,0.964285714 11.0357143,0 9.85714286,0 L6.14285714,0 C4.96428571,0 4,0.964285714 4,2.14285714 L4,2.28571429 L1.58928571,2.28571429 L0,3.05357143 L0,4.57142857 L16,4.57142857 L16,3.05357143 L14.375,2.28571429 Z M10.8571429,2.28571429 L5.14285714,2.28571429 L5.14285714,2.14285714 C5.14285714,1.625 5.625,1.14285714 6.14285714,1.14285714 L9.85714286,1.14285714 C10.375,1.14285714 10.8571429,1.625 10.8571429,2.14285714 L10.8571429,2.28571429 Z" id="trash" fill="#777D93"  ></path>
    </g>
</svg>
