<?xml version="1.0" encoding="UTF-8" standalone="no"?>
<svg width="40px" height="40px" viewBox="0 0 40 40" version="1.1" xmlns="http://www.w3.org/2000/svg" xmlns:xlink="http://www.w3.org/1999/xlink"  >
    <title>twitter-graph</title>
    
    <defs></defs>
    <g id="Page-1" stroke="none" stroke-width="1" fill="none" fill-rule="evenodd"  >
        <path d="M28.8611111,15.4871795 L28.8611111,16.0769231 C28.8611111,17.2906044 28.6950248,18.5042674 28.3628472,19.7179487 C28.0306696,20.93163 27.5202581,22.098285 26.8315972,23.2179487 C26.1429364,24.3376124 25.3206066,25.3247821 24.3645833,26.1794872 C23.40856,27.0341923 22.2621595,27.7179462 20.9253472,28.2307692 C19.588535,28.7435923 18.1504707,29 16.6111111,29 C14.0185056,29 11.8148239,28.3846215 10,27.1538462 C10.3402795,27.2051285 10.6805539,27.2307692 11.0208333,27.2307692 C12.8842686,27.2307692 14.6666582,26.5128277 16.3680556,25.0769231 C15.4444398,25.059829 14.6140083,24.7564132 13.8767361,24.1666667 C13.1394639,23.5769201 12.6331032,22.8290644 12.3576389,21.9230769 C12.6331032,21.9743592 12.9004617,22 13.1597222,22 C13.5486131,22 13.9293963,21.9487185 14.3020833,21.8461538 C13.3136525,21.6410246 12.4913227,21.1196623 11.8350694,20.2820513 C11.1788162,19.4444403 10.8506944,18.4786379 10.8506944,17.3846154 C11.4664383,17.6923095 12.1145799,17.8803418 12.7951389,17.8974359 C11.5150399,16.9914485 10.875,15.7350508 10.875,14.1282051 C10.875,13.3760646 11.0694425,12.6410292 11.4583333,11.9230769 C12.5439869,13.3076992 13.8524229,14.4059788 15.3836806,15.2179487 C16.9149382,16.0299186 18.5636486,16.487179 20.3298611,16.5897436 C20.265046,16.2991438 20.2326389,15.94872 20.2326389,15.5384615 C20.2326389,14.2905921 20.6498801,13.2222267 21.484375,12.3333333 C22.3188699,11.44444 23.3356422,11 24.5347222,11 C25.7662099,11 26.8194401,11.4786277 27.6944444,12.4358974 C28.6504677,12.2307682 29.5578661,11.8632505 30.4166667,11.3333333 C30.092591,12.4273559 29.4606528,13.2649544 28.5208333,13.8461538 C29.3472264,13.7435892 30.173607,13.5042754 31,13.1282051 C30.4166637,14.0512867 29.7037079,14.8376036 28.8611111,15.4871795 Z" id="twitter" fill="#00ACEE"  ></path>
    </g>
</svg>
