<?xml version="1.0" encoding="UTF-8" standalone="no"?>
<svg width="15px" height="15px" viewBox="0 0 15 15" version="1.1" xmlns="http://www.w3.org/2000/svg" xmlns:xlink="http://www.w3.org/1999/xlink"  >
    <title>ui-attendees</title>
    
    <defs></defs>
    <g id="Page-1" stroke="none" stroke-width="1" fill="none" fill-rule="evenodd"  >
        <path d="M15.0000393,10.312527 C15.0000393,8.12502131 11.8750311,8.75002295 11.8750311,6.8055734 C11.8750311,6.8055734 13.1250344,5.39931972 13.1250344,2.81250738 C13.1250344,1.26736443 11.85767,0 10.312527,0 C8.75002295,0 7.50001967,1.26736443 7.50001967,2.81250738 C7.50001967,3.1250082 7.51738083,3.4027867 7.55210314,3.68056521 L7.55210314,3.69792636 C7.55210314,3.69792636 8.75002295,4.75695692 8.75002295,6.56251721 C8.75002295,9.04516261 7.63890892,10.7291948 7.63890892,10.7291948 C7.63890892,10.7291948 7.93404859,11.0069733 8.68057832,11.2500295 L14.6875385,11.2500295 C14.8611501,11.2500295 15.0000393,11.1111403 15.0000393,10.9375287 L15.0000393,10.312527 Z M9.37502459,14.0625369 C9.37502459,11.8750311 6.25001639,12.5000328 6.25001639,10.5555832 C6.25001639,10.5555832 7.50001967,9.14932955 7.50001967,6.56251721 C7.50001967,5.01737427 6.23265523,3.75000983 4.68751229,3.75000983 C3.1250082,3.75000983 1.87500492,5.01737427 1.87500492,6.56251721 C1.87500492,9.14932955 3.1250082,10.5555832 3.1250082,10.5555832 C3.1250082,12.5000328 0,11.8923923 0,14.0625369 L0,14.6875385 C0,14.8611501 0.138889253,15.0000393 0.31250082,15.0000393 L9.06252377,15.0000393 C9.23613533,15.0000393 9.37502459,14.8611501 9.37502459,14.6875385 L9.37502459,14.0625369 Z" id="users" fill="#777D93"  ></path>
    </g>
</svg>
