<?xml version="1.0" encoding="UTF-8" standalone="no"?>
<svg width="15px" height="15px" viewBox="0 0 15 15" version="1.1" xmlns="http://www.w3.org/2000/svg" xmlns:xlink="http://www.w3.org/1999/xlink"  >
    <title>ui-edit</title>
    
    <defs></defs>
    <g id="Page-1" stroke="none" stroke-width="1" fill="none" fill-rule="evenodd"  >
        <path d="M12.1869373,5.62067446 L4.46122256,13.3463892 C4.42650024,13.3811115 4.39177793,13.3984726 4.35705562,13.4158338 L0.433434216,14.9783379 C0.381350746,14.995699 0.346628433,14.995699 0.31190612,14.995699 C0.225100337,14.995699 0.15565571,14.9609767 0.0862110835,14.9088933 C-0.000594699688,14.8220875 -0.0179558563,14.6831982 0.016766457,14.5616701 L1.57927055,10.6380487 C1.59663171,10.6033264 1.61399287,10.5686041 1.64871518,10.5338818 L9.37442989,2.80816709 L12.1869373,5.62067446 Z M14.7216661,1.74913653 C15.0862504,2.13108198 15.0862504,2.7213613 14.7216661,3.08594559 L13.1244397,4.683172 L10.3119323,1.87066463 L11.9091588,0.273438217 C12.273743,-0.0911460724 12.8640224,-0.0911460724 13.2459678,0.273438217 L14.7216661,1.74913653 Z" id="edit" fill="#777D93"  ></path>
    </g>
</svg>
