<?xml version="1.0" encoding="UTF-8" standalone="no"?>
<svg width="15px" height="15px" viewBox="0 0 15 15" version="1.1" xmlns="http://www.w3.org/2000/svg" xmlns:xlink="http://www.w3.org/1999/xlink"  >
    <title>ui-email</title>
    
    <defs></defs>
    <g id="Page-1" stroke="none" stroke-width="1" fill="none" fill-rule="evenodd"  >
        <path d="M15.0000393,0.34962659 C15.0174005,0.24545965 14.965317,0.123931554 14.8611501,0.054486927 C14.7569831,-0.0149576996 14.635455,-0.0149576996 14.5312881,0.0371257703 L0.15625041,8.16214708 C0.0520834699,8.23159171 0,8.33575865 0,8.45728674 C0,8.56145368 0.0694446266,8.66562062 0.173611566,8.71770409 L3.29861976,10.2802082 C3.33334208,10.2975693 3.38542555,10.3149305 3.43750902,10.3149305 C3.50695364,10.3149305 3.57639827,10.2975693 3.64584289,10.2454859 L12.5173939,2.5892158 L5.69445938,11.3739611 C5.64237591,11.4260445 5.62501475,11.4954892 5.62501475,11.5649338 L5.62501475,14.689942 C5.62501475,14.8288312 5.71182054,14.9503593 5.83334863,14.9850816 C5.86807095,15.0024428 5.90279326,15.0024428 5.93751557,15.0024428 C6.04168251,15.0024428 6.12848829,14.9503593 6.18057176,14.8809147 L7.89932627,12.589242 L12.6736443,14.9677205 C12.7604501,15.019804 12.8646171,15.019804 12.9514229,14.9677205 C13.0555898,14.915637 13.1076733,14.8288312 13.1250344,14.7246643 L15.0000393,0.34962659 Z" id="î" fill="#777D93"  ></path>
    </g>
</svg>
