<?xml version="1.0" encoding="UTF-8" standalone="no"?>
<svg width="12px" height="13px" viewBox="0 0 12 13" version="1.1" xmlns="http://www.w3.org/2000/svg" xmlns:xlink="http://www.w3.org/1999/xlink"  >
    <title>ui-export</title>
    
    <defs></defs>
    <g id="Page-1" stroke="none" stroke-width="1" fill="none" fill-rule="evenodd"  >
        <path d="M11.1041958,13.0000341 C11.2546591,13.0000341 11.3750298,12.8796634 11.3750298,12.7292001 L11.3750298,11.1041958 C11.3750298,10.9537324 11.2546591,10.8333617 11.1041958,10.8333617 L0.270834044,10.8333617 C0.120370686,10.8333617 0,10.9537324 0,11.1041958 L0,12.7292001 C0,12.8796634 0.120370686,13.0000341 0.270834044,13.0000341 L11.1041958,13.0000341 Z M11.2997982,4.25811302 C11.3750298,4.18288134 11.3900762,4.06251065 11.3599835,3.9571863 C11.3148445,3.85186195 11.2095201,3.79167661 11.1041958,3.79167661 L8.12502131,3.79167661 L8.12502131,0.270834044 C8.12502131,0.120370686 8.00465062,0 7.85418727,0 L3.52084257,0 C3.37037921,0 3.25000852,0.120370686 3.25000852,0.270834044 L3.25000852,3.79167661 L0.270834044,3.79167661 C0.165509693,3.79167661 0.060185343,3.85186195 0.0150463358,3.9571863 C-0.0150463358,4.06251065 -2.55004351e-16,4.18288134 0.0752316788,4.25811302 L5.49191255,9.67479389 C5.55209789,9.7199329 5.61228324,9.75002557 5.68751492,9.75002557 C5.76274659,9.75002557 5.82293194,9.7199329 5.88311728,9.67479389 L11.2997982,4.25811302 Z" id="î¬" fill="#777D93"  ></path>
    </g>
</svg>
