<?xml version="1.0" encoding="UTF-8" standalone="no"?>
<svg width="18px" height="12px" viewBox="0 0 18 12" version="1.1" xmlns="http://www.w3.org/2000/svg" xmlns:xlink="http://www.w3.org/1999/xlink"  >
    <title>ui-view</title>
    
    <defs></defs>
    <g id="Page-1" stroke="none" stroke-width="1" fill="none" fill-rule="evenodd"  >
        <path d="M17.937547,5.79168186 L17.8958803,5.72918169 C17.8958803,5.72918169 14.0625369,0 9.0000236,0 C3.93751033,0 0.0625001639,5.79168186 0.0625001639,5.79168186 C-0.020833388,5.91668218 -0.020833388,6.08334929 0.0625001639,6.20834962 C0.0625001639,6.20834962 3.93751033,12.0000315 9.0000236,12.0000315 C14.0625369,12.0000315 17.937547,6.20834962 17.937547,6.20834962 C18.0208806,6.08334929 18.0208806,5.91668218 17.937547,5.79168186 Z M9.0000236,9.37502459 C7.12501869,9.37502459 5.62501475,7.87502065 5.62501475,6.00001574 C5.62501475,4.14584421 7.12501869,2.62500688 9.0000236,2.62500688 C10.8541951,2.62500688 12.3750325,4.14584421 12.3750325,6.00001574 C12.3750325,7.87502065 10.8541951,9.37502459 9.0000236,9.37502459 Z" id="eye" fill="#777D93"  ></path>
    </g>
</svg>
