<?xml version="1.0" encoding="UTF-8" standalone="no"?>
<svg width="15px" height="12px" viewBox="0 0 15 12" version="1.1" xmlns="http://www.w3.org/2000/svg" xmlns:xlink="http://www.w3.org/1999/xlink"  >
    <title>ui-widget</title>
    
    <defs></defs>
    <g id="Page-1" stroke="none" stroke-width="1" fill="none" fill-rule="evenodd"  >
        <path d="M11.2500295,0.937502459 C11.2500295,0.416667759 10.8333617,0 10.312527,0 L0.937502459,0 C0.416667759,0 0,0.416667759 0,0.937502459 L0,7.50001967 C0,8.02085437 0.416667759,8.43752213 0.937502459,8.43752213 L2.50000656,8.43752213 L2.50000656,4.37501147 C2.50000656,3.33334208 3.33334208,2.50000656 4.37501147,2.50000656 L11.2500295,2.50000656 L11.2500295,0.937502459 Z M15.0000393,4.68751229 C15.0000393,4.16667759 14.5833716,3.75000983 14.0625369,3.75000983 L4.37501147,3.75000983 C4.02778834,3.75000983 3.75000983,4.02778834 3.75000983,4.37501147 L3.75000983,10.312527 C3.75000983,10.8333617 4.16667759,11.2500295 4.68751229,11.2500295 L14.0625369,11.2500295 C14.5833716,11.2500295 15.0000393,10.8333617 15.0000393,10.312527 L15.0000393,4.68751229 Z" id="" fill="#777D93"  ></path>
    </g>
</svg>
