<?xml version="1.0" encoding="UTF-8" standalone="no"?>
<svg width="61px" height="61px" viewBox="0 0 61 61" version="1.1" xmlns="http://www.w3.org/2000/svg" xmlns:xlink="http://www.w3.org/1999/xlink"  >
    <title>views-icon</title>
    
    <defs></defs>
    <g id="Page-1" stroke="none" stroke-width="1" fill="none" fill-rule="evenodd"  >
        <path d="M30.5,61 C47.3446857,61 61,47.3446857 61,30.5 C61,13.6553143 47.3446857,0 30.5,0 C13.6553143,0 0,13.6553143 0,30.5 C0,47.3446857 13.6553143,61 30.5,61 Z" id="Oval-9" fill="#50A0C4"  ></path>
        <path d="M43.9063206,30.1874638 L43.8438204,30.0937135 C43.8438204,30.0937135 38.0938053,21.499941 30.5000354,21.499941 C22.9062655,21.499941 17.0937502,30.1874638 17.0937502,30.1874638 C16.9687499,30.3749643 16.9687499,30.6249649 17.0937502,30.8124654 C17.0937502,30.8124654 22.9062655,39.4999882 30.5000354,39.4999882 C38.0938053,39.4999882 43.9063206,30.8124654 43.9063206,30.8124654 C44.0313209,30.6249649 44.0313209,30.3749643 43.9063206,30.1874638 Z M30.5000354,35.5624779 C27.687528,35.5624779 25.4375221,33.312472 25.4375221,30.4999646 C25.4375221,27.7187073 27.687528,25.4374513 30.5000354,25.4374513 C33.2812927,25.4374513 35.5625487,27.7187073 35.5625487,30.4999646 C35.5625487,33.312472 33.2812927,35.5624779 30.5000354,35.5624779 Z" id="👀" fill="#FFFFFF"  ></path>
    </g>
</svg>
