<svg width="61" height="61" viewBox="0 0 61 61" xmlns="http://www.w3.org/2000/svg"><title>attendees-icon</title><g fill="none"><path d="M30.5 61C47.345 61 61 47.345 61 30.5S47.345 0 30.5 0 0 13.655 0 30.5 13.655 61 30.5 61z" fill="#F29F29"/><path d="M43.35 34.556c0-3.86-5.517-2.758-5.517-6.19 0 0 2.206-2.483 2.206-7.05 0-2.726-2.238-4.963-4.965-4.963-2.758 0-4.964 2.237-4.964 4.964 0 .552.03 1.042.093 1.533v.03s2.114 1.87 2.114 5.057c0 4.382-1.96 7.354-1.96 7.354s.52.492 1.837.92h10.603c.307 0 .552-.245.552-.55v-1.104zm-9.93 6.62c0-3.862-5.516-2.76-5.516-6.19 0 0 2.207-2.483 2.207-7.05 0-2.727-2.236-4.964-4.964-4.964-2.758 0-4.964 2.237-4.964 4.965 0 4.566 2.206 7.048 2.206 7.048 0 3.432-5.516 2.36-5.516 6.19v1.103c0 .307.245.552.552.552H32.87c.305 0 .55-.245.55-.552v-1.103z" fill="#fff"/></g></svg>