<svg width="16" height="16" viewBox="0 0 16 16" xmlns="http://www.w3.org/2000/svg"><title>calendar-small</title><path d="M15 0h-1.333v2c0 .556-.445 1-1 1-.556 0-1-.444-1-1V0H4.333v2c0 .556-.444 1-1 1-.555 0-1-.444-1-1V0H1C.444 0 0 .444 0 1v14c0 .556.444 1 1 1h14c.556 0 1-.444 1-1V1c0-.556-.444-1-1-1zM5 13.667H2.333V11H5v2.667zM5 9H2.333V6.333H5V9zm4.333 4.667H6.667V11h2.666v2.667zm0-4.667H6.667V6.333h2.666V9zm4.334 4.667H11V11h2.667v2.667zm0-4.667H11V6.333h2.667V9z" fill-opacity=".588" fill="#767B83"/></svg>