<svg width="80" height="86" viewBox="0 0 80 86" xmlns="http://www.w3.org/2000/svg"><title>calendar</title><path d="M79.857 18.43c0-3.36-2.783-6.144-6.143-6.144h-6.142V7.68c0-4.225-3.456-7.68-7.68-7.68h-3.07c-4.224 0-7.68 3.455-7.68 7.68v4.606H30.715V7.68c0-4.225-3.455-7.68-7.678-7.68h-3.072c-4.223 0-7.678 3.455-7.678 7.68v4.606H6.143C2.783 12.286 0 15.07 0 18.43v61.427C0 83.217 2.783 86 6.143 86h67.57c3.36 0 6.144-2.783 6.144-6.143V18.43zM6.143 79.856v-13.82h13.82v13.82H6.144zm16.893 0v-13.82h15.357v13.82H23.036zM6.143 62.964V47.607h13.82v15.357H6.144zm16.893 0V47.607h15.357v15.357H23.036zM6.143 44.536V30.714h13.82v13.822H6.144zm35.32 35.32v-13.82h15.358v13.82H41.465zm-18.427-35.32V30.714h15.357v13.822H23.036zm36.857 35.32v-13.82h13.82v13.82h-13.82zm-18.43-16.892V47.607h15.358v15.357H41.465zM24.572 21.5c0 .816-.718 1.536-1.534 1.536h-3.072c-.816 0-1.535-.72-1.535-1.536V7.68c0-.817.718-1.537 1.534-1.537h3.072c.816 0 1.535.72 1.535 1.536V21.5zm35.323 41.464V47.607h13.82v15.357h-13.82zm-18.43-18.428V30.714h15.358v13.822H41.465zm18.43 0V30.714h13.82v13.822h-13.82zM61.43 21.5c0 .816-.72 1.536-1.537 1.536H56.82c-.814 0-1.534-.72-1.534-1.536V7.68c0-.817.72-1.537 1.535-1.537h3.073c.816 0 1.536.72 1.536 1.536V21.5z" fill="#5D687E"/></svg>