<svg width="17" height="17" viewBox="0 0 17 17" xmlns="http://www.w3.org/2000/svg"><title>cog</title><path d="M14.35 9.49c.06-.316.08-.65.08-.985 0-.335-.02-.67-.08-.984l1.634-1.416c.118-.078.158-.236.1-.373-.336-1.023-.906-1.987-1.615-2.793-.1-.118-.237-.158-.375-.1l-2.046.71c-.512-.414-1.083-.748-1.693-.984L9.944.438C9.924.3 9.806.182 9.668.162c-1.062-.216-2.164-.216-3.227 0-.136.02-.254.138-.274.276l-.413 2.125c-.61.236-1.2.57-1.692.984l-2.046-.71c-.137-.058-.275-.018-.373.1C.933 3.743.363 4.707.028 5.73c-.06.138-.02.296.098.374L1.76 7.52c-.06.316-.08.65-.08.985 0 .334.02.67.08.984L.124 10.904c-.118.08-.157.237-.098.374.335 1.022.905 1.987 1.614 2.793.1.118.237.158.374.1l2.047-.71c.493.413 1.083.748 1.693.984l.413 2.125c.02.138.138.256.275.276.533.098 1.064.157 1.615.157.55 0 1.082-.06 1.613-.157.138-.02.256-.138.276-.276l.413-2.125c.61-.236 1.18-.57 1.692-.984l2.045.71c.138.058.276.018.374-.1.708-.806 1.278-1.77 1.613-2.794.06-.138.02-.296-.1-.375L14.352 9.49zM8.056 11.69c-1.77 0-3.188-1.416-3.188-3.187 0-1.75 1.417-3.188 3.188-3.188 1.75 0 3.187 1.437 3.187 3.188 0 1.77-1.436 3.187-3.187 3.187z" fill="#767B83"/></svg>