<svg width="11" height="12" viewBox="0 0 11 12" xmlns="http://www.w3.org/2000/svg"><title>down</title><defs><filter x="-20%" y="-20%" width="140%" height="140%" filterUnits="objectBoundingBox" id="a"><feOffset dy="1" in="SourceAlpha" result="shadowOffsetOuter1"/><feGaussianBlur stdDeviation=".5" in="shadowOffsetOuter1" result="shadowBlurOuter1"/><feColorMatrix values="0 0 0 0 1 0 0 0 0 1 0 0 0 0 1 0 0 0 0.7 0" in="shadowBlurOuter1" result="shadowMatrixOuter1"/><feMerge><feMergeNode in="shadowMatrixOuter1"/><feMergeNode in="SourceGraphic"/></feMerge></filter></defs><path d="M.267 12c-.078 0-.14-.023-.19-.07-.048-.046-.072-.106-.072-.18v-1.5c0-.074.024-.134.073-.18.048-.047.11-.07.19-.07h10.475c.078 0 .14.023.19.07.048.046.072.106.072.18v1.5c0 .074-.024.134-.073.18-.048.047-.11.07-.19.07H.268zM5.69 8.93c-.07.047-.132.07-.19.07-.058 0-.12-.023-.19-.07l-5.232-5C0 3.857-.02 3.765.018 3.654.07 3.55.15 3.5.27 3.5h2.877V.25c0-.074.024-.134.073-.18.048-.047.11-.07.19-.07h4.185c.078 0 .14.023.19.07.048.046.072.106.072.18V3.5h2.878c.117 0 .2.05.248.153.04.11.02.203-.058.278l-5.233 5z" fill="#585D68" filter="url(#a)"/></svg>