<svg width="13" height="13" viewBox="0 0 13 13" xmlns="http://www.w3.org/2000/svg"><title>edit</title><defs><filter x="-20%" y="-20%" width="140%" height="140%" filterUnits="objectBoundingBox" id="a"><feOffset dy="1" in="SourceAlpha" result="shadowOffsetOuter1"/><feGaussianBlur stdDeviation=".5" in="shadowOffsetOuter1" result="shadowBlurOuter1"/><feColorMatrix values="0 0 0 0 1 0 0 0 0 1 0 0 0 0 1 0 0 0 0.7 0" in="shadowBlurOuter1" result="shadowMatrixOuter1"/><feMerge><feMergeNode in="shadowMatrixOuter1"/><feMergeNode in="SourceGraphic"/></feMerge></filter></defs><path d="M3.872 11.57c-.02.02-.05.04-.09.06l-3.4 1.355c-.03.01-.066.015-.106.015-.06 0-.126-.025-.196-.075-.08-.08-.1-.18-.06-.3l1.354-3.402c.02-.04.04-.07.06-.09L8.13 2.438l2.438 2.437-6.696 6.696zm8.892-10.05c.16.17.24.366.24.586 0 .22-.08.412-.24.572L11.38 4.063 8.943 1.624 10.327.24c.16-.16.35-.24.572-.24.22 0 .415.08.585.24l1.28 1.28z" fill="#585D68" filter="url(#a)"/></svg>