<svg width="24" height="24" viewBox="0 0 24 24" xmlns="http://www.w3.org/2000/svg"><title>edit</title><desc>Created with Sketch.</desc><path d="M21.983 4.148L19.11 1.275C18.615.78 17.956.5 17.247.5c-.696 0-1.367.28-1.86.775l-2.43 2.44 6.582 6.624 2.443-2.442c.493-.508.76-1.17.76-1.868 0-.712-.267-1.373-.76-1.882zm-1.43 2.3L19.54 7.467l-3.722-3.75 1-1.004c.114-.115.266-.178.43-.178.165 0 .317.063.43.178l2.874 2.885c.114.115.165.267.165.433 0 .152-.05.317-.165.42zM9.222 17.827l-4.177 1.41-.962-.952L5.49 14.09l7.746-7.78-1.43-1.437-8.077 8.123-3.355 9.966 9.937-3.356 8.088-8.123-1.43-1.436-7.747 7.78zM7.02 16.3c.19.204.456.306.71.306.265 0 .518-.102.72-.305l7.368-7.397-1.43-1.437-7.367 7.398c-.202.204-.303.458-.303.725 0 .253.1.52.304.71z" fill="#777D93"/></svg>