<svg width="39" height="39" viewBox="0 0 39 39" xmlns="http://www.w3.org/2000/svg"><title>group-circle</title><g fill="none"><ellipse stroke="#777D93" stroke-width="1.5" cx="19.5" cy="19.375" rx="18.5" ry="18.375"/><path d="M26.997 25.193c0-5.522-2.676-2.897-2.676-7.737 0-1.747 1.11-2.695 2.533-2.695 2.104 0 3.568 2.073 1.576 5.947-.656 1.272.696 1.575 2.147 1.92 1.45.345 1.34 1.134 1.34 2.566h-4.92zM10.49 20.707c-1.992-3.874-.528-5.946 1.575-5.946 1.423 0 2.532.95 2.532 2.696 0 4.84-2.676 2.215-2.676 7.737H7.003c0-1.432-.112-2.22 1.34-2.566 1.45-.345 2.802-.648 2.148-1.92zm10.755-1.188c2.45-4.9.65-7.52-1.938-7.52-2.638 0-4.394 2.72-1.937 7.52.83 1.618-.896 2-2.643 2.428-1.784.436-1.647 1.434-1.647 3.245h12.454c0-1.81.138-2.81-1.647-3.245-1.785-.437-3.447-.82-2.642-2.43z" fill="#777D93"/></g></svg>