<svg width="17" height="18" viewBox="0 0 17 18" xmlns="http://www.w3.org/2000/svg"><title>icon-settings-current</title><desc>Created with Sketch.</desc><path d="M15.195 10.047c.063-.333.084-.688.084-1.042 0-.354-.022-.708-.085-1.04l1.73-1.5c.125-.085.166-.25.104-.397-.355-1.084-.96-2.104-1.71-2.96-.104-.124-.25-.165-.395-.103l-2.167.75c-.542-.437-1.146-.79-1.792-1.04L10.53.464c-.022-.147-.147-.272-.293-.293-1.125-.23-2.292-.23-3.417 0-.145.02-.27.146-.29.292l-.44 2.25c-.645.25-1.27.604-1.79 1.04l-2.167-.75c-.146-.06-.292-.02-.396.105C.987 3.963.383 4.983.03 6.067c-.064.146-.022.312.103.396l1.73 1.5c-.063.333-.084.687-.084 1.04 0 .355.02.71.082 1.043l-1.73 1.5c-.124.083-.166.25-.103.396.353 1.083.957 2.104 1.707 2.958.104.126.25.168.396.105l2.167-.75c.52.438 1.145.792 1.79 1.042l.44 2.25c.02.146.145.27.29.292.563.103 1.125.165 1.71.165.582 0 1.145-.062 1.707-.166.146-.022.27-.147.292-.293l.436-2.25c.646-.25 1.25-.604 1.792-1.042l2.167.75c.145.063.29.02.395-.104.75-.853 1.355-1.874 1.71-2.957.06-.146.02-.313-.105-.396l-1.73-1.5zM8.53 12.38c-1.876 0-3.376-1.5-3.376-3.375 0-1.854 1.5-3.375 3.375-3.375 1.853 0 3.374 1.52 3.374 3.375 0 1.875-1.52 3.375-3.375 3.375z" fill="#fff"/></svg>