<svg width="18" height="18" viewBox="0 0 18 18" xmlns="http://www.w3.org/2000/svg"><title>icon-dashboard-current</title><path d="M9 0C4.038 0 0 4.038 0 9s4.038 9 9 9 9-4.038 9-9-4.038-9-9-9zM4.3 4.76l1.305 1.307c.14-.16.3-.32.462-.462L4.76 4.3c-.16.14-.32.3-.46.46zM3.032 6.89l1.708.704c.06-.22.142-.422.242-.623L3.275 6.27c-.08.2-.18.402-.242.623zM6.89 3.035c-.22.06-.42.16-.622.24l.703 1.708c.202-.1.403-.18.624-.24L6.89 3.033zM9.343 4.52V2.672c-.12 0-.22-.02-.342-.02-.12 0-.22.02-.342.02V4.52c.12 0 .22-.02.342-.02.12 0 .22.02.342.02zm1.064.22c.22.06.422.142.623.242l.702-1.707c-.2-.08-.402-.18-.623-.24l-.704 1.706zm4.32 1.528l-1.708.703c.1.202.18.403.24.624l1.708-.703c-.06-.22-.14-.42-.24-.622zM9 16.07c-3.897 0-7.07-3.173-7.07-7.07 0-3.897 3.173-7.07 7.07-7.07 3.897 0 7.07 3.173 7.07 7.07 0 3.897-3.173 7.07-7.07 7.07zM13.24 4.3l-1.307 1.305c.16.14.32.3.462.462L13.7 4.76c-.14-.16-.3-.32-.46-.46zM9.642 11.71v-4.64c0-.362-.28-.643-.643-.643-.362 0-.643.28-.643.64v4.642c-.562.24-.964.804-.964 1.467 0 .883.723 1.606 1.607 1.606s1.607-.723 1.607-1.607c0-.664-.402-1.227-.964-1.468z" fill="#fff"/></svg>