<svg width="19" height="18" viewBox="0 0 19 18" xmlns="http://www.w3.org/2000/svg"><title>icon-social-current</title><path d="M9.5 0C4.244 0 0 3.453 0 7.72c0 2.572 1.54 4.837 3.914 6.244-.264 1.98-1.407 3.145-1.43 3.167-.11.11-.13.287-.087.44.066.155.22.243.374.243 2.288 0 4.135-1.496 5.125-2.485.505.066 1.055.11 1.605.11 5.256 0 9.5-3.453 9.5-7.72C19 3.454 14.756 0 9.5 0zM4.75 9.104c-.88 0-1.583-.704-1.583-1.583 0-.88.703-1.582 1.583-1.582s1.583.703 1.583 1.583S5.63 9.105 4.75 9.105zm4.75 0c-.88 0-1.583-.704-1.583-1.583 0-.88.703-1.582 1.583-1.582s1.583.703 1.583 1.583S10.38 9.105 9.5 9.105zm4.75 0c-.88 0-1.583-.704-1.583-1.583 0-.88.703-1.582 1.583-1.582s1.583.703 1.583 1.583-.703 1.584-1.583 1.584z" fill="#fff"/></svg>