<svg width="17" height="17" viewBox="0 0 17 17" xmlns="http://www.w3.org/2000/svg"><title>icon-logout</title><path d="M8.5 10.93c.702 0 1.214-.514 1.214-1.216v-8.5C9.714.512 9.202 0 8.5 0S7.286.512 7.286 1.214v8.5c0 .702.512 1.215 1.214 1.215zM12.143.7v2.884C13.357 4.666 14.59 6.47 14.59 8.5c0 3.282-2.77 5.977-6.052 5.977-3.282 0-6.128-2.695-6.128-5.977 0-2.03 1.233-3.833 2.447-4.914V.702C1.82 2.012 0 5.01 0 8.5 0 13.186 3.72 17 8.405 17 13.092 17 17 13.186 17 8.5c0-3.49-1.82-6.49-4.857-7.798z" fill="#777D93"/></svg>