<svg width="18" height="18" viewBox="0 0 18 18" xmlns="http://www.w3.org/2000/svg"><title>icon-help</title><path d="M12.054 0H5.946C2.632 0 0 2.632 0 5.946v1.608C0 10.868 2.632 13.5 5.946 13.5h.483V18l4.177-4.5h1.447C15.368 13.5 18 10.868 18 7.554V5.946C18 2.632 15.368 0 12.054 0zM9 11.57c-.522 0-.964-.44-.964-.963 0-.522.442-.964.964-.964s.964.442.964.964-.442.964-.964.964zm2.23-4.8c-1.085.522-1.547.824-1.587 1.587H8.357c0-1.245.08-2.01 1.527-2.692.643-.3.884-.522.884-.984 0-.602-.522-.963-1.607-.963-.984 0-1.647.482-2.21 1.104L5.787 3.456C6.57 2.612 7.654 1.93 9.16 1.93c1.97 0 3.376.842 3.376 2.67 0 1.226-.703 1.87-1.306 2.17z" fill="#A7A9AE"/></svg>