<svg width="17" height="17" viewBox="0 0 17 17" xmlns="http://www.w3.org/2000/svg"><title>icon-contact-list-current</title><desc>Created with Sketch.</desc><path d="M13.357 7.19c1.632 0 2.94-1.308 2.94-2.94 0-1.613-1.308-2.94-2.94-2.94-1.613 0-2.94 1.327-2.94 2.94 0 1.632 1.327 2.94 2.94 2.94zm0 1.31c-2.01 0-3.643 1.537-3.643 3.434V17H17v-5.066c0-1.897-1.632-3.434-3.643-3.434zM4.554 6.375c1.764 0 3.187-1.423 3.187-3.188C7.74 1.423 6.32 0 4.555 0 2.79 0 1.366 1.423 1.366 3.187c0 1.765 1.423 3.188 3.188 3.188zm0 1.442C2.03 7.817 0 9.77 0 12.143v4.838h9.107v-4.837c0-2.372-2.03-4.326-4.553-4.326z" fill="#fff"/></svg>