<svg width="40" height="40" viewBox="0 0 40 40" xmlns="http://www.w3.org/2000/svg"><title>instagram-graph</title><path d="M28.642 8H12.358C10.505 8 9 9.505 9 11.358v16.284C9 29.495 10.505 31 12.358 31h16.284C30.495 31 32 29.495 32 27.642V11.358C32 9.505 30.495 8 28.642 8zM20.5 15.188c2.38 0 4.313 1.93 4.313 4.312 0 2.38-1.932 4.313-4.313 4.313-2.38 0-4.313-1.932-4.313-4.313 0-2.38 1.932-4.313 4.313-4.313zm9.108 12.937c0 .27-.213.483-.483.483h-17.25c-.27 0-.483-.213-.483-.483V18.062h2.55c-.102.46-.147.944-.147 1.438 0 3.706 3 6.705 6.705 6.705 3.706 0 6.705-3 6.705-6.705 0-.494-.045-.977-.146-1.438h2.548v10.063zm0-14.375c0 .27-.213.483-.483.483H26.25c-.27 0-.483-.213-.483-.483v-2.875c0-.27.213-.483.483-.483h2.875c.27 0 .483.213.483.483v2.875z" fill="#3F729B"/></svg>