<svg width="14" height="14" viewBox="0 0 14 14" xmlns="http://www.w3.org/2000/svg"><title>link-small-medium</title><path d="M12.886 6.48c1.49-1.49 1.49-3.887 0-5.362-1.475-1.49-3.873-1.49-5.363 0L5.35 3.288c-1.473 1.476-1.473 3.874 0 5.365.342.34.892.34 1.233 0 .356-.34.356-.89 0-1.232-.794-.81-.794-2.09 0-2.9L8.77 2.35c.794-.794 2.09-.794 2.885 0 .794.794.794 2.09 0 2.884l-1.037 1.053c.26.697.356 1.426.29 2.17l1.978-1.976zm-4.23 4.23c1.475-1.474 1.475-3.872 0-5.363-.34-.34-.907-.34-1.247 0-.34.34-.34.908 0 1.248.81.794.81 2.09 0 2.884l-2.172 2.17c-.794.794-2.09.794-2.884 0-.794-.793-.794-2.09 0-2.884L3.39 7.73c-.26-.698-.356-1.443-.29-2.188L1.105 7.535c-1.475 1.474-1.475 3.872 0 5.363 1.49 1.475 3.89 1.475 5.363 0l2.187-2.187z" opacity=".691" fill="#666F81"/></svg>