<svg width="12" height="9" viewBox="0 0 12 9" xmlns="http://www.w3.org/2000/svg"><title>mail</title><defs><filter x="-20%" y="-20%" width="140%" height="140%" filterUnits="objectBoundingBox" id="a"><feOffset dy="1" in="SourceAlpha" result="shadowOffsetOuter1"/><feGaussianBlur stdDeviation=".5" in="shadowOffsetOuter1" result="shadowBlurOuter1"/><feColorMatrix values="0 0 0 0 1 0 0 0 0 1 0 0 0 0 1 0 0 0 0.7 0" in="shadowBlurOuter1" result="shadowMatrixOuter1"/><feMerge><feMergeNode in="shadowMatrixOuter1"/><feMergeNode in="SourceGraphic"/></feMerge></filter></defs><path d="M12 .75l-6 4.5-6-4.5C0 .546.074.37.222.222.37.074.546 0 .75 0h10.5c.204 0 .38.074.528.222.148.148.222.324.222.528zM0 2.097l6 4.5 6-4.5V8.25c0 .204-.074.38-.222.528-.148.148-.324.222-.528.222H.75c-.204 0-.38-.074-.528-.222C.074 8.63 0 8.454 0 8.25V2.097z" fill="#585D68" filter="url(#a)"/></svg>