<svg width="62" height="62" viewBox="0 0 62 62" xmlns="http://www.w3.org/2000/svg"><title>much-smile</title><path d="M31.07 0C13.907 0 0 13.91 0 31c0 17.092 13.908 31 31.07 31C48.16 62 62 48.092 62 31 62 13.91 48.16 0 31.07 0zm7.68 16.607c2.422 0 4.43 2.007 4.43 4.43 0 2.42-2.008 4.427-4.43 4.427-2.422 0-4.43-2.006-4.43-4.428s2.008-4.43 4.43-4.43zm-15.5 0c2.422 0 4.43 2.007 4.43 4.43 0 2.42-2.008 4.427-4.43 4.427-2.422 0-4.43-2.006-4.43-4.428s2.008-4.43 4.43-4.43zM31 50.93c-8.926 0-16.746-6.644-19.93-13.287h39.86C47.814 44.286 40.064 50.93 31 50.93z" fill="#A7A9AE"/></svg>