<svg width="13" height="13" viewBox="0 0 13 13" xmlns="http://www.w3.org/2000/svg"><title>plus</title><defs><filter x="-20%" y="-20%" width="140%" height="140%" filterUnits="objectBoundingBox" id="a"><feOffset dy="1" in="SourceAlpha" result="shadowOffsetOuter1"/><feGaussianBlur stdDeviation=".5" in="shadowOffsetOuter1" result="shadowBlurOuter1"/><feColorMatrix values="0 0 0 0 0 0 0 0 0 0 0 0 0 0 0 0 0 0 0.7 0" in="shadowBlurOuter1" result="shadowMatrixOuter1"/><feMerge><feMergeNode in="shadowMatrixOuter1"/><feMergeNode in="SourceGraphic"/></feMerge></filter></defs><path d="M7.646 11H5.354c-.068 0-.123-.02-.165-.064-.044-.042-.065-.097-.065-.165V6.876H1.23c-.07 0-.124-.02-.166-.064C1.02 6.77 1 6.715 1 6.647V4.354c0-.068.02-.123.064-.165.042-.044.097-.065.165-.065h3.895V.23c0-.07.02-.124.064-.166C5.23.02 5.285 0 5.353 0h2.292c.068 0 .123.02.165.064.044.042.065.097.065.165v3.895h3.896c.07 0 .124.02.166.064.043.04.064.096.064.164v2.292c0 .068-.02.123-.064.165-.042.044-.097.065-.165.065H7.876v3.896c0 .07-.02.124-.064.166-.04.043-.096.064-.164.064z" fill="#fff" filter="url(#a)"/></svg>