<svg width="50" height="17" viewBox="0 0 50 17" xmlns="http://www.w3.org/2000/svg"><title>redactor-style</title><g fill="#585D68"><path d="M49.97 7.2c.028-.033.035-.082.014-.13-.02-.042-.062-.07-.11-.07h-5.75c-.05 0-.09.028-.112.07-.02.048-.014.097.014.13l2.875 3.5c.022.036.064.05.098.05.035 0 .07-.014.097-.05l2.875-3.5z"/><path d="M1.224 9.396c.168.192.357.387.567.585.21.2.448.376.712.532.264.156.558.282.882.378.324.096.678.144 1.062.144.792 0 1.41-.18 1.854-.54.444-.36.666-.846.666-1.458 0-.66-.252-1.155-.756-1.485-.504-.33-1.23-.596-2.178-.8-.516-.108-.984-.258-1.404-.45-.42-.192-.783-.432-1.09-.72-.305-.288-.542-.62-.71-1C.66 4.204.576 3.775.576 3.295c0-.444.084-.864.252-1.26.168-.396.42-.744.756-1.044.336-.3.756-.54 1.26-.72C3.348.09 3.93 0 4.59 0c.588 0 1.095.063 1.52.19.427.125.79.278 1.09.458.3.18.54.366.72.558.18.192.318.348.414.468L7.182 2.736c-.072-.084-.18-.195-.324-.333-.144-.138-.327-.273-.55-.405-.22-.132-.48-.243-.773-.333-.294-.09-.633-.135-1.017-.135-.384 0-.714.05-.99.153-.276.102-.504.234-.684.396-.18.16-.312.344-.396.548-.084.204-.126.408-.126.612 0 .3.063.555.19.765.125.21.308.396.548.558.24.162.537.3.89.414.355.114.76.225 1.216.333.444.108.88.25 1.305.423.427.174.808.408 1.144.702.336.294.603.654.8 1.08.2.426.298.945.298 1.557 0 .516-.108.99-.324 1.422-.216.432-.513.807-.89 1.125-.38.317-.826.563-1.342.737-.516.174-1.074.26-1.674.26-.564 0-1.077-.065-1.54-.197-.46-.132-.88-.3-1.26-.504-.377-.204-.707-.43-.99-.675-.28-.245-.512-.488-.692-.728l1.224-1.116zm10.422-4.104h-1.512v-1.35h1.512V1.206h1.62v2.736h2.448v1.35h-2.448v4.122c0 .672.105 1.134.315 1.386.21.252.508.378.892.378.312 0 .57-.048.774-.144.204-.096.408-.24.612-.432l.738.99c-.348.336-.705.58-1.07.73-.367.15-.802.224-1.306.224-.888 0-1.54-.24-1.953-.72-.414-.48-.62-1.23-.62-2.25V5.292zm6.228 9.072c.12.108.258.204.414.288.156.084.348.126.576.126.192 0 .357-.042.495-.126.137-.084.263-.213.377-.387.114-.174.222-.384.324-.63.103-.246.22-.53.352-.855l.216-.54-3.744-8.298h1.854l2.7 6.318 2.376-6.318h1.764l-3.348 8.154c-.156.384-.315.807-.477 1.27-.162.46-.363.9-.603 1.313-.24.413-.534.758-.882 1.034s-.786.414-1.314.414c-.42 0-.774-.057-1.062-.17-.288-.115-.54-.268-.756-.46l.738-1.134zm9-14.058h1.62v12.006h-1.62V.306zm11.484 10.782c-.096.108-.24.246-.432.414-.192.168-.44.33-.747.486-.307.156-.667.29-1.08.405-.415.114-.886.17-1.414.17-.648 0-1.242-.107-1.782-.323-.54-.216-1.002-.522-1.386-.918-.384-.396-.68-.87-.89-1.422-.21-.552-.316-1.164-.316-1.836 0-.612.102-1.185.306-1.72.204-.533.492-.995.864-1.385s.813-.7 1.323-.928c.51-.228 1.07-.342 1.683-.342.72 0 1.338.138 1.854.414.516.276.94.642 1.27 1.098.33.456.572.978.728 1.566.156.588.234 1.2.234 1.836h-6.606c.012.372.093.714.243 1.026.15.312.352.582.604.81.252.228.54.408.864.54.324.132.666.198 1.026.198.708 0 1.29-.12 1.746-.36.456-.24.786-.474.99-.702l.918.972zM36.9 7.398c-.048-.648-.276-1.2-.684-1.656-.408-.456-.984-.684-1.728-.684-.384 0-.73.066-1.035.198-.306.132-.567.306-.783.522-.216.216-.384.465-.504.747s-.186.573-.198.873H36.9z"/></g></svg>