<svg width="30" height="11" viewBox="0 0 30 11" xmlns="http://www.w3.org/2000/svg"><title>redactor-link</title><g fill="#585D68"><path d="M15.203 9.808c2.484-.075 4.542-2.133 4.603-4.604.088-2.47-1.85-4.408-4.333-4.333l-3.618.11c-2.457.074-4.515 2.132-4.603 4.603-.018.567.428 1.012.995.995.58-.004 1.053-.477 1.057-1.057.053-1.336 1.152-2.434 2.49-2.488l3.63-.096c1.323-.04 2.37 1.007 2.33 2.33-.04 1.323-1.152 2.436-2.475 2.476l-1.743.066c-.388.807-.936 1.512-1.628 2.1l3.293-.1zM11.204.14c2.457-.073 4.515-2.132 4.603-4.603.017-.567-.44-1.025-1.008-1.008-.567.016-1.054.503-1.07 1.07-.028 1.336-1.14 2.45-2.476 2.476l-3.62.11c-1.322.04-2.37-1.01-2.33-2.332C3.82-.53 4.933-1.64 6.256-1.68l1.728-.053c.388-.808.95-1.526 1.642-2.113l-3.32.1C3.847-3.672 1.788-1.614 1.7.857 1.64 3.327 3.58 5.265 6.036 5.19l3.645-.11zM29.97 5.2c.028-.033.035-.082.014-.13-.02-.042-.062-.07-.11-.07h-5.75c-.05 0-.09.028-.112.07-.02.048-.014.097.014.13L26.9 8.7c.022.036.064.05.098.05.035 0 .07-.014.097-.05l2.875-3.5z"/></g></svg>