<svg width="21" height="10" viewBox="0 0 21 10" xmlns="http://www.w3.org/2000/svg"><title>redactor-number-list</title><g fill="#585D68"><path d="M5 0h16v2H5zM5 4h16v2H5zM5 8h16v2H5z"/><path d="M.108 9.378c0-.2.04-.38.123-.54.083-.16.186-.306.31-.438s.26-.253.405-.363c.146-.11.28-.214.405-.312.124-.098.227-.194.31-.288.08-.094.122-.19.122-.29 0-.097-.038-.187-.114-.27-.076-.085-.202-.127-.378-.127-.088 0-.167.014-.237.042-.07.028-.132.063-.186.105-.054.042-.1.088-.138.138-.04.05-.072.095-.1.135L0 6.732c.052-.088.12-.176.2-.264.083-.088.18-.167.295-.237.114-.07.245-.125.393-.167.148-.042.314-.063.498-.063.216 0 .404.03.564.093.16.062.293.143.4.243.105.1.184.214.236.342.052.128.078.26.078.396 0 .18-.038.342-.114.486-.076.144-.172.276-.288.396-.116.12-.24.23-.375.333-.134.1-.26.198-.375.29-.116.092-.213.182-.29.27-.08.088-.118.178-.118.27h1.578v.768H.108v-.51z"/><path d="M.342 3.042h.654v-2.1l-.63.336L0 .618 1.122 0h.714v3.042h.618v.738H.342v-.738z"/></g></svg>