<svg width="9" height="13" viewBox="0 0 9 13" xmlns="http://www.w3.org/2000/svg"><title>redactor-bold</title><path d="M0 0h4.068c.624 0 1.164.08 1.62.243.456.162.834.38 1.134.657.3.276.525.6.675.972.15.372.225.768.225 1.188 0 .384-.07.732-.207 1.044-.138.312-.306.576-.504.792-.197.216-.413.39-.647.522-.234.132-.435.21-.603.234.228.036.495.11.8.225.307.114.592.285.856.513.264.228.486.525.666.89.18.367.27.82.27 1.36 0 .648-.117 1.185-.35 1.61-.235.427-.553.772-.955 1.036-.402.264-.88.45-1.43.558-.553.108-1.14.162-1.765.162H0V0zm3.762 10.512c.312 0 .636-.018.972-.054.336-.036.645-.12.927-.252.283-.132.514-.327.694-.585.18-.257.27-.614.27-1.07 0-.432-.087-.78-.26-1.044-.175-.264-.397-.474-.667-.63-.27-.156-.567-.26-.89-.315-.325-.053-.637-.08-.937-.08H1.674v4.032h2.088zm.054-5.508c.264 0 .528-.033.792-.1.264-.065.504-.17.72-.314.216-.144.39-.33.522-.558.132-.228.198-.504.198-.828 0-.36-.066-.65-.198-.873-.132-.22-.306-.395-.522-.52-.216-.127-.456-.21-.72-.253-.264-.042-.528-.063-.792-.063H1.674v3.51h2.142z" fill="#585D68"/></svg>