<svg width="8" height="8" viewBox="0 0 8 8" xmlns="http://www.w3.org/2000/svg"><title>remove</title><path d="M5.665 3.948l2.353-2.302c.032-.042.053-.083.053-.136 0-.052-.02-.093-.052-.135L6.666.052C6.623.022 6.58 0 6.526 0c-.052 0-.095.02-.137.052L4.035 2.354 1.682.052C1.64.022 1.597 0 1.544 0c-.053 0-.096.02-.138.052L.053 1.375C.02 1.417 0 1.458 0 1.51c0 .053.02.094.053.136l2.353 2.302L.053 6.25C.02 6.292 0 6.333 0 6.385c0 .053.02.094.053.136l1.353 1.324c.042.03.085.052.138.052.053 0 .096-.02.138-.052l2.354-2.302L6.39 7.844c.04.03.084.052.137.052.054 0 .096-.02.14-.052l1.35-1.323c.033-.04.054-.082.054-.135 0-.052-.02-.093-.052-.135L5.665 3.948z" fill="#fff"/></svg>