<svg width="19" height="19" viewBox="0 0 19 19" xmlns="http://www.w3.org/2000/svg"><title>search</title><desc>Created with Sketch.</desc><path d="M18.024 16.782l-4.626-4.626c.978-1.253 1.527-2.79 1.527-4.418 0-1.923-.747-3.725-2.11-5.077C11.465 1.31 9.66.563 7.738.563c-1.912 0-3.714.748-5.077 2.1C1.31 4.01.563 5.814.563 7.737c0 1.923.748 3.726 2.1 5.077 1.362 1.352 3.164 2.1 5.076 2.1 1.627 0 3.165-.54 4.418-1.517l4.626 4.626 1.242-1.242zm-14.132-5.21C2.87 10.553 2.31 9.19 2.31 7.74c0-1.45.56-2.813 1.593-3.846C4.925 2.87 6.288 2.31 7.738 2.31c1.45 0 2.814.56 3.846 1.582 1.022 1.033 1.583 2.396 1.583 3.846 0 1.45-.56 2.814-1.583 3.835-1.032 1.033-2.395 1.594-3.846 1.594-1.45 0-2.813-.56-3.846-1.594z" fill="#777D93"/></svg>