<svg width="61" height="61" viewBox="0 0 61 61" xmlns="http://www.w3.org/2000/svg"><title>instagram</title><g fill="none"><path d="M30.5 61C47.345 61 61 47.345 61 30.5S47.345 0 30.5 0 0 13.655 0 30.5 13.655 61 30.5 61z" fill="#3F729B"/><path d="M39.496 19H22.504C20.57 19 19 20.57 19 22.504v16.992C19 41.43 20.57 43 22.504 43h16.992C41.43 43 43 41.43 43 39.496V22.504C43 20.57 41.43 19 39.496 19zM31 26.5c2.484 0 4.5 2.016 4.5 4.5s-2.016 4.5-4.5 4.5-4.5-2.016-4.5-4.5 2.016-4.5 4.5-4.5zM40.504 40c0 .28-.223.504-.504.504H22c-.28 0-.504-.223-.504-.504V29.5h2.66c-.105.48-.152.984-.152 1.5 0 3.867 3.13 6.996 6.996 6.996 3.867 0 6.996-3.13 6.996-6.996 0-.516-.047-1.02-.152-1.5h2.66V40zm0-15c0 .28-.223.504-.504.504h-3c-.28 0-.504-.223-.504-.504v-3c0-.28.223-.504.504-.504h3c.28 0 .504.223.504.504v3z" fill="#fff"/></g></svg>