<svg width="61" height="61" viewBox="0 0 61 61" xmlns="http://www.w3.org/2000/svg"><title>social-linkedin</title><g fill="none"><path d="M30.5 61C47.345 61 61 47.345 61 30.5S47.345 0 30.5 0 0 13.655 0 30.5 13.655 61 30.5 61z" fill="#0E76A8"/><path d="M19.525 24.85V41h5.2V24.85h-5.2zm13.538 6.775c0-2.087 1.33-3.125 2.893-3.125 1.562 0 2.832 1.038 2.832 3.65V41H44v-9.375c0-4.688-2.6-7.288-6.25-7.288-2.087 0-3.65 1.184-4.688 2.747l-.17-2.234h-5.127c0 .55.085 3.65.085 3.65V41h5.212v-9.375zM22.1 22.25c1.93 0 3.15-1.27 3.15-2.87-.024-1.61-1.22-2.855-3.1-2.855-1.905 0-3.15 1.245-3.15 2.856 0 1.6 1.22 2.87 3.064 2.87h.037z" fill="#fff"/></g></svg>