<svg width="61" height="61" viewBox="0 0 61 61" xmlns="http://www.w3.org/2000/svg"><title>social-flickr</title><g fill="none"><path d="M30.5 61C47.345 61 61 47.345 61 30.5S47.345 0 30.5 0 0 13.655 0 30.5 13.655 61 30.5 61z" fill="#FF0084"/><path d="M29.38 30.5c0-3.4-2.782-6.183-6.197-6.183-3.4 0-6.183 2.782-6.183 6.183 0 3.4 2.782 6.183 6.183 6.183 3.415 0 6.196-2.782 6.196-6.183zm14.62 0c0-3.4-2.782-6.183-6.183-6.183-3.415 0-6.196 2.782-6.196 6.183 0 3.4 2.782 6.183 6.197 6.183 3.4 0 6.183-2.782 6.183-6.183z" fill="#fff"/></g></svg>