<svg width="61" height="61" viewBox="0 0 61 61" xmlns="http://www.w3.org/2000/svg"><title>social-googleplus</title><g fill="none"><path d="M30.5 61C47.345 61 61 47.345 61 30.5S47.345 0 30.5 0 0 13.655 0 30.5 13.655 61 30.5 61z" fill="#DD4B39"/><path d="M46 24.183h-4.496v-4.495H40.37v4.495h-4.495v1.134h4.496v4.495h1.134v-4.495H46v-1.134zm-15.28 9.19c-.66-.436-1.872-1.53-1.872-2.19 0-.75.21-1.12 1.345-2.03 1.186-.91 1.99-2.188 1.99-3.678 0-1.793-.777-3.507-2.28-4.074h2.254l1.595-1.146h-7.066c-3.19 0-6.157 2.4-6.157 5.182 0 2.847 2.16 5.128 5.378 5.128.21 0 .435 0 .66-.026-.225.395-.343.87-.343 1.33 0 .792.395 1.412.936 1.94h-1.225c-3.903 0-6.935 2.504-6.935 5.1 0 2.56 3.31 4.154 7.225 4.154 4.495 0 6.96-2.53 6.96-5.09 0-2.03-.62-3.255-2.465-4.6zm-3.783-3.534c-1.807-.054-3.56-2.03-3.876-4.43-.316-2.374.91-4.22 2.716-4.154 1.846.053 3.573 1.965 3.876 4.364.317 2.386-.896 4.285-2.715 4.22zm-.712 12.1c-2.73 0-4.667-1.726-4.667-3.782 0-2.03 2.412-3.692 5.128-3.692.633.04 1.226.132 1.753.29 1.463 1.03 2.53 1.622 2.847 2.77.026.25.053.474.053.724 0 2.057-1.305 3.69-5.115 3.69z" fill="#fff"/></g></svg>