<svg width="61" height="61" viewBox="0 0 61 61" xmlns="http://www.w3.org/2000/svg"><title>twitter</title><g fill="none"><path d="M30.5 61C47.345 61 61 47.345 61 30.5S47.345 0 30.5 0 0 13.655 0 30.5 13.655 61 30.5 61z" fill="#00ACEE"/><path d="M43 23.48c-.928.415-1.904.696-2.954.818 1.074-.635 1.88-1.648 2.258-2.844-.976.586-2.087 1.013-3.235 1.245-.965-.978-2.296-1.613-3.773-1.613-2.832 0-5.114 2.283-5.114 5.115 0 .403.024.818.11 1.184-4.25-.232-8.008-2.16-10.56-5.26-.427.756-.695 1.537-.695 2.49 0 1.757.903 3.32 2.295 4.247-.843-.024-1.624-.256-2.32-.634v.06c0 2.49 1.77 4.565 4.114 5.03-.44.12-.903.182-1.367.182-.318 0-.635-.037-.952-.098.634 2.027 2.55 3.54 4.773 3.565-1.733 1.39-3.967 2.428-6.36 2.428-.414 0-.817-.024-1.22-.086 2.258 1.453 4.98 2.088 7.874 2.088 9.423 0 14.575-7.813 14.575-14.587v-.672c.987-.72 1.854-1.61 2.55-2.66z" fill="#fff"/></g></svg>