<svg width="536" height="341" viewBox="0 0 536 341" xmlns="http://www.w3.org/2000/svg"><title>speech-bg</title><g fill="none"><g id="Rectangle-37-+-?"><path d="M499.464 160H498c-4.41 0-8-3.586-8-8.01v-16.98c0-4.43 3.58-8.01 8-8.01h30c4.41 0 8 3.586 8 8.01v16.98c0 4.43-3.58 8.01-8 8.01h-17.93l-10.606 10.607V160z" id="Rectangle-37" stroke="#979797" stroke-width="2"/><text id="?" fill="#979797" font-family=".Lucida Grande UI" font-size="21" transform="translate(490 126)"><tspan x="17.566" y="20.454">?</tspan></text></g><g id="Rectangle-37-+-?"><path d="M451.12 64.725h-6.113c-4.426 0-8.007-3.578-8.007-7.992v-33.25c0-4.41 3.585-7.99 8.007-7.99h52.614c4.427 0 8.008 3.577 8.008 7.99v33.25c0 4.412-3.585 7.992-8.007 7.992h-30.676L451.12 80.55V64.724z" id="Rectangle-37" stroke="#979797" stroke-width="2"/><text id="?" fill="#979797" font-family=".Lucida Grande UI" font-size="30.75" transform="translate(437 15)"><tspan x="26.208" y="42.677">?</tspan></text></g><g id="Rectangle-37-+-?"><path d="M464.348 328h-3.35c-4.413 0-7.998-3.582-7.998-8v-22c0-4.425 3.58-8 7.997-8h38.006c4.412 0 7.997 3.582 7.997 8v22c0 4.425-3.58 8-7.997 8h-22.018l-12.374 12.374L464.35 328z" id="Rectangle-37" stroke="#979797" stroke-width="2"/><text id="?" fill="#979797" font-family=".Lucida Grande UI" font-size="24" transform="translate(453 290)"><tspan x="20" y="27">?</tspan></text></g><g id="Rectangle-37-+-?"><path d="M62.93 301H45c-4.41 0-8-3.586-8-8.01v-16.98c0-4.43 3.58-8.01 8-8.01h30c4.41 0 8 3.586 8 8.01v16.98c0 4.43-3.58 8.01-8 8.01h-1.464v10.607L62.93 301z" id="Rectangle-37" stroke="#979797" stroke-width="2"/><text id="?" fill="#979797" font-family=".Lucida Grande UI" font-size="21" transform="translate(37 267)"><tspan x="17.566" y="20.454">?</tspan></text></g><g id="Rectangle-37-+-?"><path d="M31.496 120.5H7.994c-4.406 0-7.994-3.582-7.994-8V88c0-4.424 3.58-8 7.994-8h40.012C52.412 80 56 83.582 56 88v24.5c0 4.424-3.58 8-7.994 8h-3.51l-.053 12.947L31.496 120.5z" id="Rectangle-37" stroke="#979797" stroke-width="2"/><text id="?" fill="#979797" font-family=".Lucida Grande UI" font-size="26" transform="translate(0 80)"><tspan x="20.312" y="30.708">?</tspan></text></g><g><path d="M146.19 23.39h-10.195c-4.41 0-7.995-3.58-7.995-8V8c0-4.422 3.58-8 7.995-8h16.353c4.41 0 7.995 3.582 7.995 8v7.39c0 3.96-2.872 7.245-6.644 7.887l-.032 7.59-7.478-7.476z" stroke="#979797" stroke-width="2"/><text fill="#979797" font-family=".Lucida Grande UI" font-size="14.857" transform="translate(128 -8)"><tspan x="11.731" y="14.297">?</tspan></text></g></g></svg>