<svg width="151" height="63" viewBox="0 0 151 63" xmlns="http://www.w3.org/2000/svg" xmlns:xlink="http://www.w3.org/1999/xlink"><title>stripe</title><defs><path d="M11.69 26.67c0 1.374.884 1.832 2.97 2.813l1.263.59C18.893 31.447 23 33.673 23 40.22 23 50.69 15.48 52 10.11 52c-3.476 0-7.14-.85-9.605-1.636v-8.968c2.15.59 5.877 1.506 7.52 1.506 1.832 0 3.222-.262 3.222-1.964 0-1.31-.884-1.898-2.843-2.815l-1.517-.72C4.044 36.03 0 33.674 0 27.324 0 18.03 7.014 16 12.89 16c4.423 0 7.33 1.047 8.846 1.636v8.706c-1.77-.59-5.37-1.375-7.52-1.375-1.452 0-2.526.393-2.526 1.702zm30.966 15.073c.766 0 3.45-.386 4.344-.514v8.678c-1.853.45-5.94 1.092-8.625 1.092-3.45 0-9.903-.385-9.903-9.835v-17.1H24v-7.78h4.472l1.533-7.713L40.61 6v10.286H47l-1.597 7.778H40.61V38.98c0 2.313.704 2.763 2.046 2.763zm23.01-15.438c-1.858 0-3.282.778-3.9 1.167V51H50V16.648h9.35l1.733 3.305c.682-2.138 2.54-3.953 5.264-3.953 1.857 0 3.096.388 3.653.713v10.24c-1.177-.324-2.724-.648-4.334-.648zM73 16h12v34H73V16zm6-4c-3.383 0-6-2.716-6-6s2.617-6 6-6 6 2.716 6 6-2.617 6-6 6zm27.028 39.41c-1.497 0-3.056-.45-4.178-.707V63H90V16.644h9.604l1.747 2.124C103.16 17.094 105.717 16 108.4 16 113.262 16 119 17.416 119 33.513c0 17.64-8.607 17.898-12.972 17.898zM104.648 25c-.648 0-1.942.585-2.648 1.04v16.635c.53.195 1.47.325 1.882.325 1.942 0 3.118-1.82 3.118-9.422 0-7.733-.53-8.578-2.353-8.578zm30.218 13.123c0 3.732 1.757 4.452 4.708 4.452 3.39 0 7.973-1.048 9.73-1.375v9.033c-1.38.524-5.587 1.767-9.73 1.767C132.104 52 123 50.757 123 34.13 123 19.47 130.157 16 137.69 16c7.723 0 13.31 4.124 13.31 18v4.123h-16.134zM137.813 23c-3 0-2.688 3.87-2.813 8h5c0-4.656 0-8-2.187-8z" id="a"/><mask><use xlink:href="#a"/></mask></defs><use fill="#262626" xlink:href="#a"/></svg>