<svg baseProfile="tiny" xmlns="http://www.w3.org/2000/svg" width="163" height="24" preserveAspectRatio="xMaxYMax meet" viewBox="0 0 163 24"><g><title>close</title><desc>Created with Sketch.</desc><path d="M17.734 3.03l-1.766-1.765-6.72 6.72-6.718-6.72L.764 3.03l6.72 6.72-6.72 6.72 1.766 1.765 6.72-6.72 6.718 6.72 1.766-1.766-6.72-6.72 6.72-6.72z" fill="#777D93"/></g><g transform="translate(18)"><title>edit</title><desc>Created with Sketch.</desc><path d="M21.983 4.148L19.11 1.275C18.616.78 17.958.5 17.25.5c-.697 0-1.368.28-1.862.775l-2.43 2.44 6.582 6.624 2.443-2.442c.494-.508.76-1.17.76-1.87 0-.71-.267-1.372-.76-1.88zm-1.43 2.3L19.54 7.467l-3.722-3.75 1-1.004c.114-.114.266-.178.43-.178.165 0 .316.064.43.178l2.873 2.886c.115.114.166.267.166.432 0 .153-.05.318-.165.42zM9.223 17.827l-4.176 1.41-.962-.952L5.49 14.09l7.747-7.78-1.43-1.437-8.076 8.123-3.353 9.966 9.937-3.356 8.09-8.123-1.43-1.436-7.748 7.78zM7.022 16.3c.19.204.457.306.71.306.266 0 .52-.102.722-.305l7.367-7.397-1.43-1.436-7.368 7.398c-.203.203-.304.458-.304.725 0 .254.1.52.304.712z" fill="#777D93"/></g><g transform="translate(42)"><title>email</title><desc>Created with Sketch.</desc><path d="M20.346 14.597L16.35 9.492l-1.782 1.336 3.856 4.922H4.146l4.064-5.203L6.427 9.21l-4.216 5.4V6.16L0 4.246V18h22.557V4.683L20.345 6.58v8.017zM0 0v1.898l9.496 7.34c.58.437 1.327.648 2.073.648.76 0 1.506-.21 2.086-.647l8.9-6.906V0H0zm12.343 7.467c-.4.295-1.133.295-1.534 0L3.883 2.25h15.384l-6.925 5.217z" fill="#777D93"/></g><g transform="translate(65)"><title>files</title><desc>Created with Sketch.</desc><path d="M3.42 3.356V22h9.357L19 15.86V3.355H3.42zM17.1 15.09l-5.118 5.046H5.32V5.22H17.1v9.87zm-5.32-.175h3.8V13.05h-5.7v5.594h1.9v-3.73zM15.58 0H0v18.644h1.9V1.864h13.68V0z" fill="#777D93"/></g><g transform="translate(84)"><title>lock-dark</title><desc>Created with Sketch.</desc><path d="M11 7h-1V4c0-2.204-1.796-4-4-4-2.204 0-4 1.796-4 4v3H1c-.556 0-1 .444-1 1v7c0 .556.444 1 1 1h10c.556 0 1-.444 1-1V8c0-.556-.444-1-1-1zM4 4c0-1.11.89-2 2-2s2 .89 2 2v3H4V4z" fill="#959698"/></g><g transform="translate(96)"><title>menu</title><path d="M0 0v2h17V0H0zm0 5v2h17V5H0zm0 5v2h17v-2H0z" fill="#fff"/></g><g transform="translate(113)"><title>navigateleft</title><desc>Created with Sketch.</desc><path d="M8.005 16.005c.093 0 .167-.037.24-.093l2.334-2.333c.13-.13.13-.353 0-.482L5.467 8.005l5.11-5.093c.13-.13.13-.352 0-.48L8.247.097c-.13-.13-.352-.13-.48 0L.097 7.765c-.13.13-.13.352 0 .48l7.667 7.668c.074.056.148.093.24.093z" fill-opacity=".8" fill="#fff"/></g><g transform="translate(124)"><title>search</title><desc>Created with Sketch.</desc><path d="M18.024 16.782l-4.626-4.626c.978-1.253 1.527-2.79 1.527-4.418 0-1.923-.747-3.725-2.11-5.077C11.463 1.31 9.66.563 7.738.563c-1.912 0-3.714.747-5.077 2.1C1.31 4.01.563 5.814.563 7.737s.747 3.725 2.1 5.077c1.362 1.352 3.164 2.1 5.076 2.1 1.626 0 3.165-.54 4.418-1.517l4.626 4.626 1.242-1.242zm-14.132-5.21C2.87 10.553 2.31 9.19 2.31 7.74c0-1.45.56-2.813 1.593-3.846C4.925 2.87 6.288 2.31 7.738 2.31c1.45 0 2.813.56 3.846 1.582 1.022 1.033 1.582 2.396 1.582 3.846 0 1.45-.56 2.813-1.582 3.835-1.033 1.033-2.396 1.593-3.846 1.593-1.45 0-2.813-.56-3.846-1.593z" fill="#777D93"/></g><g transform="translate(143)"><title>trash</title><desc>Created with Sketch.</desc><path d="M15.227 19.925H3.772V7.472H1.727V22h15.545V7.472h-2.045v12.453zm-9-12.453V17.85h2.045V7.47H6.227zm4.5 0V17.85h2.045V7.47h-2.045zm3.58-3.736L13.067 0H5.933l-1.24 3.736H.5V5.81h18V3.737h-4.193zm-7.453 0l.55-1.66h4.193l.55 1.66H6.854z" fill="#777D93"/></g></svg>