<svg width="61" height="61" viewBox="0 0 61 61" xmlns="http://www.w3.org/2000/svg"><title>ticket-icon</title><g fill="none"><path d="M30.5 61C47.345 61 61 47.345 61 30.5S47.345 0 30.5 0 0 13.655 0 30.5 13.655 61 30.5 61z" fill="#82C16B"/><path d="M44 27.607l-3.345-3.345c-.633.482-2.38.543-3.435-.482-1.025-1.055-.964-2.772-.482-3.435L33.393 17 17 33.393l3.345 3.345c.693-.452 2.38-.513 3.405.512s.964 2.712.512 3.405L27.607 44 44 27.607zM23.75 32.43l4.82 4.82 8.68-8.68-4.82-4.82-8.68 8.68zm4.82 6.75l-6.75-6.75 10.61-10.61 6.75 6.75-10.61 10.61z" fill="#fff"/></g></svg>