<svg width="61" height="61" viewBox="0 0 61 61" xmlns="http://www.w3.org/2000/svg"><title>time-icon</title><g fill="none"><path d="M30.5 61C47.345 61 61 47.345 61 30.5S47.345 0 30.5 0 0 13.655 0 30.5 13.655 61 30.5 61z" fill="#8898A0"/><path d="M30.5 17C23.057 17 17 23.057 17 30.5S23.057 44 30.5 44 44 37.943 44 30.5 37.943 17 30.5 17zm2.41 13.5c0-.994-.602-1.838-1.446-2.2v-6.48c0-.54-.422-.963-.964-.963s-.964.422-.964.964v6.48c-.573.24-.995.693-1.236 1.236h-5.514c-.543 0-.965.422-.965.964s.423.964.966.964H28.3c.362.844 1.206 1.447 2.2 1.447 1.326 0 2.41-1.084 2.41-2.41zM30.5 41.107c-5.846 0-10.607-4.76-10.607-10.607 0-5.846 4.76-10.607 10.607-10.607 5.846 0 10.607 4.76 10.607 10.607 0 5.846-4.76 10.607-10.607 10.607z" fill="#fff"/></g></svg>