<svg width="16" height="16" viewBox="0 0 16 16" xmlns="http://www.w3.org/2000/svg"><title>trash</title><path d="M2.286 16h11.428l.572-10.857H1.714L2.286 16zm8-9.143c0-.32.25-.57.57-.57.323 0 .573.25.573.57v7.43c0 .32-.25.57-.573.57-.32 0-.57-.25-.57-.57v-7.43zm-2.857 0c0-.32.25-.57.57-.57.32 0 .57.25.57.57v7.43c0 .32-.25.57-.57.57-.32 0-.57-.25-.57-.57v-7.43zm-2.86 0c0-.32.25-.57.573-.57.32 0 .57.25.57.57v7.43c0 .32-.25.57-.57.57-.322 0-.572-.25-.572-.57v-7.43zm9.805-4.57H12v-.144C12 .963 11.036 0 9.857 0H6.143C4.963 0 4 .964 4 2.143v.143H1.59L0 3.054V4.57h16V3.055l-1.625-.768zm-3.518 0H5.143v-.144c0-.518.482-1 1-1h3.714c.518 0 1 .482 1 1v.143z" fill="#777D93"/></svg>