<svg width="40" height="40" viewBox="0 0 40 40" xmlns="http://www.w3.org/2000/svg"><title>twitter-graph</title><path d="M28.86 15.487v.59c0 1.214-.165 2.427-.497 3.64-.332 1.215-.843 2.38-1.53 3.5-.69 1.12-1.512 2.108-2.468 2.962-.956.854-2.103 1.538-3.44 2.05-1.336.514-2.775.77-4.314.77-2.59 0-4.795-.615-6.61-1.846.34.05.68.077 1.02.077 1.864 0 3.647-.717 5.348-2.153-.924-.017-1.754-.32-2.49-.91-.74-.59-1.245-1.338-1.52-2.244.275.05.542.077.802.077.39 0 .77-.05 1.142-.154-.988-.205-1.81-.726-2.467-1.564-.656-.838-.984-1.803-.984-2.897.616.307 1.265.495 1.945.512-1.28-.906-1.92-2.162-1.92-3.77 0-.75.194-1.486.583-2.204 1.086 1.385 2.394 2.483 3.926 3.295 1.53.812 3.18 1.27 4.946 1.372-.065-.29-.097-.64-.097-1.052 0-1.247.417-2.316 1.25-3.205.836-.89 1.853-1.333 3.052-1.333 1.23 0 2.284.48 3.16 1.436.955-.205 1.863-.573 2.722-1.103-.324 1.094-.956 1.932-1.896 2.513.827-.102 1.654-.342 2.48-.718-.583.923-1.296 1.71-2.14 2.36z" fill="#00ACEE"/></svg>