<svg width="15" height="15" viewBox="0 0 15 15" xmlns="http://www.w3.org/2000/svg"><title>ui-attendees</title><path d="M15 10.313c0-2.188-3.125-1.563-3.125-3.507 0 0 1.25-1.407 1.25-3.993C13.125 1.267 11.858 0 10.313 0 8.75 0 7.5 1.267 7.5 2.813c0 .312.017.59.052.868V3.7S8.75 4.758 8.75 6.563c0 2.482-1.11 4.166-1.11 4.166s.294.277 1.04.52h6.008c.173 0 .312-.14.312-.312v-.625zm-5.625 3.75c0-2.188-3.125-1.563-3.125-3.507 0 0 1.25-1.407 1.25-3.993 0-1.546-1.267-2.813-2.812-2.813-1.563 0-2.813 1.267-2.813 2.813 0 2.586 1.25 3.993 1.25 3.993C3.125 12.5 0 11.892 0 14.063v.625c0 .173.14.312.313.312h8.75c.173 0 .312-.14.312-.312v-.625z" fill="#777D93"/></svg>