<svg width="12" height="13" viewBox="0 0 12 13" xmlns="http://www.w3.org/2000/svg"><title>ui-export</title><path d="M11.104 13c.15 0 .27-.12.27-.27v-1.626c0-.15-.12-.27-.27-.27H.27c-.15 0-.27.12-.27.27v1.625c0 .15.12.27.27.27h10.834zm.196-8.742c.075-.075.09-.195.06-.3-.045-.106-.15-.166-.256-.166h-2.98V.272c0-.152-.12-.272-.27-.272H3.52c-.15 0-.27.12-.27.27v3.522H.27c-.104 0-.21.06-.255.165-.03.106-.015.226.06.3l5.417 5.418c.06.045.12.075.196.075.075 0 .135-.03.195-.075L11.3 4.258z" fill="#777D93"/></svg>