<svg width="15" height="15" viewBox="0 0 15 15" xmlns="http://www.w3.org/2000/svg"><title>ui-email</title><path d="M15 .35c.017-.105-.035-.226-.14-.296-.103-.07-.225-.07-.33-.017L.157 8.162c-.104.07-.156.174-.156.295 0 .104.07.21.174.26L3.3 10.28c.033.018.085.035.138.035.07 0 .138-.017.208-.07l8.87-7.656-6.822 8.784c-.052.052-.07.12-.07.19v3.126c0 .14.088.26.21.295.034.017.07.017.104.017.104 0 .19-.052.243-.12l1.72-2.293 4.774 2.378c.086.052.19.052.277 0 .106-.052.158-.14.175-.243L15 .35z" fill="#777D93"/></svg>