<svg width="61" height="61" viewBox="0 0 61 61" xmlns="http://www.w3.org/2000/svg"><title>views-icon</title><g fill="none"><path d="M30.5 61C47.345 61 61 47.345 61 30.5S47.345 0 30.5 0 0 13.655 0 30.5 13.655 61 30.5 61z" fill="#50A0C4"/><path d="M43.906 30.187l-.062-.093S38.094 21.5 30.5 21.5c-7.594 0-13.406 8.687-13.406 8.687-.125.188-.125.438 0 .625 0 0 5.812 8.688 13.406 8.688s13.406-8.688 13.406-8.688c.125-.187.125-.437 0-.625zM30.5 35.562c-2.812 0-5.062-2.25-5.062-5.062 0-2.78 2.25-5.063 5.062-5.063 2.78 0 5.063 2.282 5.063 5.063 0 2.812-2.282 5.062-5.063 5.062z" fill="#fff"/></g></svg>